<?xml version="1.0" encoding="UTF-8" standalone="no"?>
<svg
   xmlns:dc="http://purl.org/dc/elements/1.1/"
   xmlns:cc="http://creativecommons.org/ns#"
   xmlns:rdf="http://www.w3.org/1999/02/22-rdf-syntax-ns#"
   xmlns:svg="http://www.w3.org/2000/svg"
   xmlns="http://www.w3.org/2000/svg"
   xmlns:sodipodi="http://sodipodi.sourceforge.net/DTD/sodipodi-0.dtd"
   xmlns:inkscape="http://www.inkscape.org/namespaces/inkscape"
   width="6.64444in"
   height="3.88889in"
   viewBox="0 0 598 350"
   version="1.1"
   id="svg3709"
   sodipodi:docname="controller.svg"
   inkscape:version="0.92.2 (5c3e80d, 2017-08-06)">
  <metadata
     id="metadata3715">
    <rdf:RDF>
      <cc:Work
         rdf:about="">
        <dc:format>image/svg+xml</dc:format>
        <dc:type
           rdf:resource="http://purl.org/dc/dcmitype/StillImage" />
      </cc:Work>
    </rdf:RDF>
  </metadata>
  <defs
     id="defs3713" />
  <sodipodi:namedview
     pagecolor="#ffffff"
     bordercolor="#666666"
     borderopacity="1"
     objecttolerance="10"
     gridtolerance="10"
     guidetolerance="10"
     inkscape:pageopacity="0"
     inkscape:pageshadow="2"
     inkscape:window-width="2560"
     inkscape:window-height="1361"
     id="namedview3711"
     showgrid="false"
     inkscape:zoom="2.2122334"
     inkscape:cx="269.36897"
     inkscape:cy="172.57081"
     inkscape:window-x="-9"
     inkscape:window-y="102"
     inkscape:window-maximized="1"
     inkscape:current-layer="svg3709" />
  <path
     id="Selection"
     transform="scale(0.93750016)"
     style="fill:#527f2a;fill-opacity:0.54228854;stroke:#000000;stroke-width:1.06666648"
     d="M 0,0 V 0.20898438 C 0.03125624,0.19663642 0.06249991,0.18423825 0.09375,0.171875 0.24954812,0.11023769 0.27027147,0.09898572 0.41601562,0.04101562 0.43216151,0.02721287 0.44865232,0.01376484 0.46484375,0 Z m 80.962891,0 c 0.899853,0.56068061 1.27959,1.123878 -0.25,1.6113281 l -0.865235,0.2773438 c -0.376308,0.01278 -0.755755,0.087411 -1.128906,0.037109 C 77.826874,1.8055565 77.368418,1.5503848 76.677734,1.0546875 76.614524,1.0093185 76.62428,0.89024785 76.554688,0.85546875 76.244653,0.70055584 75.923206,0.57056231 75.607422,0.42773438 c -0.0078,-0.00729 -0.0098,-0.0119999 -0.02344,-0.0214844 -0.0034,-9.386e-5 -0.01043,-0.001932 -0.01367,-0.001953 -0.538347,-0.00351 -1.076905,-0.009212 -1.615234,0.001953 -1.179296,0.0268587 -2.357757,0.0449755 -3.53125,-0.11328125 -1.980091,-0.0288652 -3.90373,0.43615927 -5.875,0.56835937 -0.542337,0.036371 -1.087321,0.007318 -1.630859,0.0117188 -0.367819,0.002978 -0.7357,0.006375 -1.103516,0.009766 -2.182225,-0.00783 -4.376851,-0.19106444 -6.550781,-0.0488281 -0.889305,0.19829462 -1.43729,0.35116932 -2.400391,0.40625002 -1.127435,0.064479 -2.277114,-0.30034456 -3.353515,0.2421875 -0.511573,0.1150801 -1.012838,0.2791799 -1.533204,0.34375 -0.315711,0.039176 -0.63767,-0.013514 -0.955078,-0.035156 -1.291735,-0.088079 -2.574844,-0.369935 -3.875,-0.28125 -0.460739,0.1429485 -3.014181,0.9358062 -3.101562,0.9570313 -0.506901,0.1231278 -1.036032,0.1353637 -1.544922,0.25 -1.572996,0.354345 -3.104768,0.9355369 -4.730469,1.0507812 -0.499632,0.05378 -0.997889,0.139915 -1.5,0.1601563 -0.272906,0.011002 -0.544825,-0.037374 -0.816406,-0.066406 -0.123451,-0.013197 -0.270611,0.019415 -0.367187,-0.058594 -0.05007,-0.040437 0.132891,-0.2060813 0.07422,-0.1796875 -0.272254,0.1224235 -0.460284,0.3927452 -0.74414,0.5 -0.352423,0.2553311 -0.671555,0.5628819 -1.056641,0.765625 -0.330541,0.1740261 -0.709693,0.2345697 -1.064453,0.3515625 0.08685,-0.090989 0.176111,-0.1586854 -0.125,-0.023437 -0.285726,0.1283319 -0.555498,0.2915074 -0.84375,0.4140625 -0.02088,0.00887 0.01589,-0.043054 0.02344,-0.064453 -0.182156,0.1042784 -0.353292,0.2313791 -0.546875,0.3125 -0.04624,0.019375 0.130473,-0.1505157 0.08984,-0.1210937 -0.229265,0.1661896 -0.432016,0.367424 -0.660156,0.5351563 -0.04428,0.032557 -0.09339,0.055297 -0.138672,0.085937 -4.050186,3.5320135 -7.627891,6.4703278 -12.089844,9.7128908 -2.41927,1.758116 -4.9349817,3.3784 -7.4023435,5.068359 -0.4185475,0.2442 -0.8347785,0.493518 -1.2519531,0.740235 -0.2703559,1.291924 -0.7952961,2.444436 -2.0839844,1.228515 -0.3347108,0.197575 -0.6740703,0.386202 -1.0097656,0.582032 -0.00119,0.07944 -0.00574,0.158829 -0.00586,0.238281 -2.046e-4,0.13711 0.034245,0.276896 0.00195,0.410156 -0.120192,0.496372 -0.302963,0.975354 -0.4550781,1.462891 -0.074227,0.149584 -0.1638087,0.292944 -0.2226562,0.449218 -0.01843,0.04894 0.083346,-0.131658 0.1230468,-0.09766 0.04584,0.03931 0.030122,0.118025 0.039063,0.177734 0.022435,0.149845 0.043378,0.300081 0.054687,0.451172 0.021449,0.286388 0.02868,0.572541 0.042969,0.859375 0.010216,0.968301 -0.010947,1.936235 -0.021484,2.904297 0.031759,0.274966 0.036474,0.560135 -0.00391,0.861328 -6.2e-6,0.964848 7.5e-6,1.929683 0,2.894532 4.85e-5,0.221939 -6.27e-5,0.444076 0,0.666015 -2.4e-6,0.452013 0.3960945,1.137697 0,1.355469 2.42e-5,0.225845 2.58e-5,0.45189 0,0.677734 -1.82e-5,0.151119 0.1494545,0.475485 0,0.453125 C 1.2115672,37.385313 0.60290976,37.293382 0,37.1875 v 299.60547 c 0.75356379,1.0862 1.5218153,2.75863 2.28125,3.25195 0.2848192,0.31505 0.6072731,0.59929 0.8535156,0.94531 0.2532093,0.35583 0.4201961,0.76612 0.6347656,1.14649 0.4636851,0.82199 0.8699529,1.65743 1.2109376,2.53516 0.031544,0.29797 0.1032064,0.7522 0.1074218,1.17773 0.065414,-0.008 0.097489,0.26853 0.1347656,0.38477 0.2846832,0.88758 0.2187347,0.76474 0.2988282,1.7207 -0.1119619,0.90575 -0.1241784,1.805 -0.099609,2.71484 0.012931,0.68223 0.00557,1.36457 0.00195,2.04688 0.2754373,0.27801 0.5178859,0.56387 0.9492188,1.0664 0.226478,0.26779 0.4681696,0.52297 0.6796875,0.80274 0.2699877,0.35709 0.547711,0.71333 0.7636718,1.10547 0.6026607,1.09429 0.8811899,2.39787 1.8730469,3.24804 0.2424723,0.20783 0.5364629,0.3462 0.8046879,0.51953 1.094483,1.3034 1.558456,1.73405 2.384765,3.12891 0.337538,0.56978 0.59127,1.18659 0.929688,1.75586 0.806481,1.3566 1.809154,2.58913 2.867187,3.75195 0.300949,0.28752 0.568818,0.59436 0.810547,0.91797 1.998821,-0.13394 4.206688,0.17182 5.492188,0.25781 1.113357,0.0908 2.231021,0.0652 3.345703,0.0254 0.213477,-0.007 0.444362,-0.11363 0.640625,-0.0293 0.707668,0.30408 1.442157,0.62127 2.017578,1.13086 0.701847,0.13035 1.317115,0.55764 1.853516,1.03515 0.03661,-0.0616 0.353761,0.22381 0.490234,0.31836 0.4169,0.28882 1.253213,0.92485 1.652344,1.58203 H 312.55859 c 2.05038,-0.40077 4.08937,-0.91765 6.17579,-1.10742 2.64983,-0.24102 3.63127,-0.12748 6.15234,-0.0215 3.61872,0.23463 7.26649,0.45943 10.89453,0.28125 0.35259,-0.0173 5.19934,-0.47127 5.65625,-0.51367 3.08186,0.20961 5.98435,-0.95306 9.03125,-1.11133 1.04343,-0.0542 1.54341,0.037 2.54492,0.14648 4.10132,0.2388 8.21918,0.0702 12.32617,0.0527 3.95401,0.009 7.90732,0.0178 11.86133,0.0137 0.46646,-5e-4 0.93561,-0.04 1.40039,0 5.70852,0.48539 -2.26234,0.0519 3.23633,0.4707 3.09219,0.23548 6.23169,0.0843 9.32617,0.0391 3.22025,-0.042 5.03008,0.008 8.1875,-0.30664 1.00275,-0.10016 1.99311,-0.30377 2.99219,-0.43554 2.41944,-0.3191 4.83755,-0.63149 7.26953,-0.82813 1.79544,-0.10357 3.58447,0.0807 5.375,0.16016 0.44493,0.0197 0.89459,0.0967 1.33594,0.0371 0.43789,-0.0592 0.84182,-0.27046 1.26758,-0.38867 0.60016,-0.16663 1.20532,-0.30987 1.80859,-0.46485 1.80845,-0.0759 1.44938,-0.56442 3.01367,-0.6582 0.32016,-0.0192 0.63272,0.14147 0.95313,0.12695 1.4175,0.11192 2.84941,-0.0838 4.26562,0.002 1.07396,0.0648 2.35649,0.34325 3.4375,0.45313 0.51143,0.0519 1.02602,0.0636 1.53907,0.0957 1.78758,0.23867 3.57739,0.36947 5.3496,0.71485 0.68381,0.13326 1.35349,0.34352 2.04297,0.44336 2.15415,0.31195 3.83309,0.25966 6.04102,0.29882 3.92605,-0.25286 7.8421,0.20999 11.76367,0.30274 1.64767,0.0389 2.62312,0.01 4.25977,-0.0137 0.70781,-0.0129 1.41518,-0.0283 2.12304,-0.0391 0.66228,-0.01 1.32955,-0.0926 1.98828,-0.0234 2.74301,0.28783 5.14587,1.49214 7.91602,1.87109 1.27615,0.17458 2.56748,0.20004 3.85156,0.30078 0.36312,0.0359 0.72641,0.0683 1.08985,0.10156 h 118.85546 c 3.71495,-1.58909 7.18127,-3.21961 10.35938,-5.98242 4.04696,-3.51812 7.02672,-7.89589 10.20898,-12.15625 1.37809,-1.47482 2.12735,-3.39586 3.35547,-4.97461 0.27822,-1.0382 1.39801,-1.18058 1.99805,-1.86718 0.0418,-0.0478 -0.15382,-0.0909 -0.12305,-0.14649 0.28279,-0.51093 0.66679,-0.95988 1,-1.43945 0.35176,-0.56783 0.68734,-1.14526 1.05469,-1.70313 1.74028,-2.6428 1.70651,-2.21844 3.21094,-5.16797 1.62089,-3.17788 2.75032,-6.53544 3.89648,-9.90234 0.37071,-0.86376 0.74062,-1.72803 1.11133,-2.5918 0.24213,-0.57597 0.48049,-1.15224 0.72656,-1.72656 0.31323,-0.73107 0.86208,-2.24976 1.77539,-2.77148 -9.4e-4,-0.5189 -0.005,-1.03779 -0.004,-1.55664 10e-5,-1.31749 -3e-5,-2.63565 0,-3.95313 -0.31061,-1.13013 0.58913,-2.211 0.60351,-3.22461 -0.0127,-0.0412 -0.0474,-0.0808 -0.0391,-0.12304 0.45983,-2.31415 0.10552,-0.47813 0.50586,-1.72852 0.009,-0.0261 -0.0867,0.0345 -0.082,0.008 0.074,-0.42544 0.17613,-0.84473 0.26367,-1.26758 0.08,-0.30412 0.12231,-0.61338 0.1543,-0.92382 V 308.32031 46.369141 c -2.17011,-4.862995 -4.34681,-9.723798 -6.47657,-14.603516 -1.262,-2.891663 -1.77128,-4.678012 -3.39648,-7.201172 -0.45825,-0.711445 -1.03535,-1.338139 -1.55273,-2.007812 -1.15273,-1.203402 -2.26885,-2.443547 -3.41993,-3.648438 -0.12514,-0.05425 -0.24746,-0.122723 -0.35937,-0.226562 -0.3813,-0.353791 -0.71737,-0.756636 -1.02539,-1.175782 -0.0711,-0.06946 -0.13933,-0.14197 -0.21094,-0.210937 -0.32904,-0.31691 -0.75428,-0.69521 -1.17969,-1.072266 -0.53485,-0.32972 -0.88692,-0.638283 -1.17382,-1.021484 -1.55479,-1.329902 -3.26805,-2.740596 -4.35743,-3.685547 -1.22075,-1.05891 -2.40212,-2.1633654 -3.61914,-3.2265625 -1.1748,-1.0263176 -2.37084,-2.0274274 -3.55664,-3.0410156 -1.15841,-0.7942164 -2.25619,-1.684145 -3.47461,-2.3828125 -0.9992,-0.5729561 -2.09021,-0.9723717 -3.15234,-1.4179688 C 599.59195,0.89332518 598.23854,0.42166416 596.86914,0 h -176.6582 c -0.32475,0.07059573 -0.64838,0.14578723 -0.97266,0.21875 -2.34834,0.61841237 -2.78719,0.7938331 -4.9668,1.1796875 -2.14782,0.3802301 -4.34088,0.4500419 -6.49218,0.8183594 -4.83278,-0.00178 -9.66724,-0.011884 -14.5,0.00391 -1.96255,0.00602 -3.92608,0.039093 -5.88672,-0.068359 -0.86029,0.098697 -1.66457,0.2334636 -2.54297,0.2539062 -3.26788,0.076051 -6.52833,-0.2564072 -9.77344,-0.59375 -1.33119,-0.1244778 -2.6638,-0.2417563 -3.99414,-0.375 -1.30364,-0.1305688 -2.60157,-0.3220186 -3.9082,-0.4179688 -1.17163,-0.0860352 -2.34926,-0.0495152 -3.52149,-0.12695308 -2.50611,-0.16555636 -4.97183,-0.7323121 -7.49218,-0.70703124 -1.00438,0.13853963 -2.02153,0.20726485 -3.01368,0.41601562 -5.84282,1.2293392 -2.87337,1.0892055 -9.16992,2.4609375 -4.65897,1.0149811 -9.44553,1.3564531 -14.20312,1.2929688 -1.47335,-0.081967 -2.95091,-0.1066002 -4.41992,-0.2460938 -6.85196,-0.6506402 -1.61173,-0.4115956 -7.89258,-1.21875 -2.18475,-0.2807632 -3.30598,-0.1968373 -5.44336,-0.1953125 -0.65407,4.666e-4 -1.30882,-0.00536 -1.96289,-0.00781 -6.38563,-0.1095799 -12.77025,-0.2280014 -19.14844,0.2597656 -3.63314,0.1205805 -6.39729,0.3136796 -10.02148,0.039063 -4.99696,-0.3786367 -4.04022,-0.6563517 -8.85352,-1.4648437 -3.87889,-0.65153998 -5.95749,-0.75846367 -9.88281,-1.1074219 -12.57443,-0.022906 -25.14874,-0.0964581 -37.72266,0.0722656 -6.43005,0.0466381 -12.89099,0.23249162 -19.3164,-0.13085937 -1.0596,-0.0599186 -2.11542,-0.17233897 -3.17188,-0.2734375 C 201.71817,0.06103602 201.49981,0.02952997 201.28125,0 h -4.17578 C 193.98621,0.22164898 190.8743,0.42757807 187.74023,0.31835938 186.14244,0.2626777 184.5499,0.14511028 182.96094,0 Z M 614.70117,45.925781 c 3.71419,0.06119 7.06085,0.69822 9.57617,4.324219 2.58134,3.701333 1.85547,11.370824 1.85547,15.882812 V 104.5332 298.66602 c 0,3.02933 0.22396,6.8162 -1.24804,9.54687 -4.26667,7.88267 -23.7437,5.38672 -31.81836,5.38672 H 486.40039 27.732422 c -4.714666,-0.0107 -9.918251,0.32062 -13.40625,-3.49805 -2.762666,-3.008 -2.572417,-6.57181 -2.59375,-10.36914 V 265.59961 106.66602 58.666016 c 0.096,-6.623999 0.970798,-9.716459 7.466797,-12.703125 H 42.666016 84.267578 214.40039 611.19922 c 0.636,-0.01067 1.26669,-0.02632 1.88867,-0.03516 0.54423,-0.0077 1.08268,-0.01019 1.61328,-0.002 z M 26.708984,48.945312 c -2.877332,0.02533 -5.727412,0.222157 -8.330078,0.910157 -4.234666,3.050666 -3.434646,6.113313 -3.445312,10.945312 V 112 298.66602 c 0.01067,2.95466 -0.308969,6.86953 1.707031,9.26953 2.058666,2.432 4.980579,2.41151 7.892578,2.46484 H 48 153.59961 611.19922 c 8.17066,-0.0213 11.56371,-0.31961 11.73437,-9.59961 v -48 -191.999999 c 0,-2.943999 0.37387,-7.66024 -1.85547,-9.878906 -1.91988,-1.92 -5.2268,-1.812802 -7.74414,-1.855469 H 589.86719 483.19922 164.26758 66.132812 35.199219 c -2.709333,0 -5.612902,-0.146416 -8.490235,-0.121094 z m 13.578125,3.166016 c 5.417333,-0.004 10.971949,0.150917 14.113282,0.15625 3.135999,0.01067 7.433969,-0.502442 9.417968,2.462891 1.258667,1.909333 1.216047,4.928719 1.248047,7.136719 v 19.199218 c 0,2.954666 0.341853,7.776678 -1.855468,10.027344 -1.717334,1.76 -4.405735,1.664365 -6.677735,1.707031 H 32 c -2.08,-0.04267 -4.938906,0.106302 -6.378906,-1.707031 -1.248,-1.578666 -1.077224,-4.884839 -1.087891,-6.826172 V 59.732422 c 0.07467,-3.605333 -0.308489,-4.490172 2.464844,-6.826172 2.591999,-0.629333 7.87173,-0.790922 13.289062,-0.794922 z m 44.798829,0 c 5.417321,-0.004 10.971948,0.150917 14.113281,0.15625 3.136001,0.01067 7.435921,-0.502442 9.419921,2.462891 1.25867,1.909333 1.21605,4.928719 1.24805,7.136719 v 19.199218 c 0,2.954666 0.33991,7.776678 -1.85742,10.027344 -1.71734,1.76 -4.40379,1.664365 -6.67579,1.707031 H 76.800781 c -2.079999,-0.04267 -4.938906,0.106302 -6.378906,-1.707031 -1.248,-1.578666 -1.077224,-4.884839 -1.087891,-6.826172 V 59.732422 c 0.07467,-3.605333 -0.310442,-4.490172 2.462891,-6.826172 2.592,-0.629333 7.87173,-0.790922 13.289063,-0.794922 z m 44.800782,0 c 5.41733,-0.004 10.97195,0.150917 14.11328,0.15625 3.136,0.01067 7.43397,-0.502442 9.41797,2.462891 1.25867,1.909333 1.21605,4.928719 1.24805,7.136719 v 19.199218 c 0,2.954666 0.34186,7.776678 -1.85547,10.027344 -1.71734,1.76 -4.40574,1.664365 -6.67774,1.707031 h -24.5332 c -2.08,-0.04267 -4.93891,0.106302 -6.37891,-1.707031 -1.248,-1.578666 -1.07722,-4.884839 -1.08789,-6.826172 V 59.732422 c 0.0747,-3.605333 -0.30849,-4.490172 2.46485,-6.826172 2.592,-0.629333 7.87173,-0.790922 13.28906,-0.794922 z m 44.80078,0 c 5.41733,-0.004 10.97195,0.150917 14.11328,0.15625 3.136,0.01067 7.43397,-0.502442 9.41797,2.462891 1.25867,1.909333 1.21605,4.928719 1.24805,7.136719 v 19.199218 c 0,2.954666 0.34186,7.776678 -1.85547,10.027344 -1.71733,1.76 -4.40574,1.664365 -6.67774,1.707031 h -24.5332 c -2.08,-0.04267 -4.93891,0.106302 -6.37891,-1.707031 -1.248,-1.578666 -1.07722,-4.884839 -1.08789,-6.826172 V 59.732422 c 0.0747,-3.605333 -0.31044,-4.490172 2.46289,-6.826172 2.592,-0.629333 7.87369,-0.790922 13.29102,-0.794922 z m 44.79883,0 c 5.41733,-0.004 10.97195,0.150917 14.11328,0.15625 3.136,0.01067 7.43592,-0.502442 9.41992,2.462891 1.25867,1.909333 1.21605,4.928719 1.24805,7.136719 v 19.199218 c 0,2.954666 0.33991,7.776678 -1.85742,10.027344 -1.71734,1.76 -4.40574,1.664365 -6.67774,1.707031 h -24.5332 c -2.08,-0.04267 -4.93695,0.106302 -6.37695,-1.707031 -1.248,-1.578666 -1.07918,-4.884839 -1.08985,-6.826172 V 59.732422 c 0.0747,-3.605333 -0.30849,-4.490172 2.46485,-6.826172 2.592,-0.629333 7.87173,-0.790922 13.28906,-0.794922 z m 44.80078,0 c 5.41733,-0.004 10.97195,0.150917 14.11328,0.15625 3.136,0.01067 7.43397,-0.502442 9.41797,2.462891 1.25867,1.909333 1.21605,4.928719 1.24805,7.136719 v 19.199218 c 0,2.954666 0.34186,7.776678 -1.85547,10.027344 -1.71734,1.76 -4.40574,1.664365 -6.67774,1.707031 H 256 c -2.08,-0.04267 -4.93891,0.106302 -6.37891,-1.707031 -1.248,-1.578666 -1.07722,-4.884839 -1.08789,-6.826172 V 59.732422 c 0.0747,-3.605333 -0.30849,-4.490172 2.46485,-6.826172 2.592,-0.629333 7.87173,-0.790922 13.28906,-0.794922 z m 44.79883,0 c 5.41733,-0.004 10.97195,0.150917 14.11328,0.15625 3.136,0.01067 7.43592,-0.502442 9.41992,2.462891 1.25867,1.909333 1.21605,4.928719 1.24805,7.136719 v 19.199218 c 0,2.954666 0.33991,7.776678 -1.85742,10.027344 -1.71734,1.76 -4.40379,1.664365 -6.67579,1.707031 h -24.5332 c -2.08,-0.04267 -4.93902,0.106302 -6.3789,-1.707031 -1.248,-1.578666 -1.07723,-4.884839 -1.0879,-6.826172 V 59.732422 c 0.0747,-3.605333 -0.31044,-4.490172 2.4629,-6.826172 2.59188,-0.629333 7.87173,-0.790922 13.28906,-0.794922 z m 44.80078,0 c 5.41733,-0.004 10.97195,0.150917 14.11328,0.15625 3.136,0.01067 7.43397,-0.502442 9.41797,2.462891 1.25867,1.909333 1.21605,4.928719 1.24805,7.136719 v 19.199218 c 0,2.954666 0.34186,7.776678 -1.85547,10.027344 -1.71734,1.76 -4.40574,1.664365 -6.67774,1.707031 h -24.5332 c -2.08,-0.04267 -4.93891,0.106302 -6.37891,-1.707031 -1.248,-1.578666 -1.07722,-4.884839 -1.08789,-6.826172 V 59.732422 c 0.0747,-3.605333 -0.30849,-4.490172 2.46485,-6.826172 2.592,-0.629333 7.87173,-0.790922 13.28906,-0.794922 z m 44.80078,0 c 5.41733,-0.004 10.97195,0.150917 14.11328,0.15625 3.136,0.01067 7.43397,-0.502442 9.41797,2.462891 1.25867,1.909333 1.21605,4.928719 1.24805,7.136719 v 19.199218 c 0,2.954666 0.34186,7.776678 -1.85547,10.027344 -1.71733,1.76 -4.40574,1.664365 -6.67774,1.707031 h -24.5332 c -2.08,-0.04267 -4.93891,0.106302 -6.37891,-1.707031 -1.248,-1.578666 -1.07722,-4.884839 -1.08789,-6.826172 V 59.732422 c 0.0747,-3.605333 -0.31044,-4.490172 2.46289,-6.826172 2.592,-0.629333 7.87369,-0.790922 13.29102,-0.794922 z m 43.73242,0 c 5.41733,-0.004 10.97195,0.150917 14.11328,0.15625 3.136,0.01067 7.43397,-0.502442 9.41797,2.462891 1.25867,1.909333 1.21605,4.928719 1.24805,7.136719 v 19.199218 c 0,2.954666 0.34186,7.776678 -1.85547,10.027344 -1.71733,1.76 -4.40573,1.664365 -6.67773,1.707031 h -24.53321 c -2.08,-0.04267 -4.9389,0.106302 -6.3789,-1.707031 -1.248,-1.578666 -1.07723,-4.884839 -1.08789,-6.826172 V 59.732422 c 0.0747,-3.605333 -0.30849,-4.490172 2.46484,-6.826172 2.592,-0.629333 7.87173,-0.790922 13.28906,-0.794922 z m 44.80078,0 c 5.41734,-0.004 10.97195,0.150917 14.11328,0.15625 3.136,0.01067 7.43397,-0.502442 9.41797,2.462891 1.25867,1.909333 1.21605,4.928719 1.24805,7.136719 v 19.199218 c 0,2.954666 0.34186,7.776678 -1.85547,10.027344 -1.71733,1.76 -4.40573,1.664365 -6.67773,1.707031 h -24.53321 c -2.08,-0.04267 -4.9389,0.106302 -6.3789,-1.707031 -1.248,-1.578666 -1.07723,-4.884839 -1.08789,-6.826172 V 59.732422 c 0.0747,-3.605333 -0.31045,-4.490172 2.46289,-6.826172 2.592,-0.629333 7.87368,-0.790922 13.29101,-0.794922 z m 44.79883,0 c 5.41733,-0.004 10.97195,0.150917 14.11328,0.15625 3.136,0.01067 7.43592,-0.502442 9.41992,2.462891 1.25867,1.909333 1.21605,4.928719 1.24805,7.136719 v 19.199218 c 0,2.954666 0.33991,7.776678 -1.85742,10.027344 -1.71733,1.76 -4.40574,1.664365 -6.67774,1.707031 h -24.5332 c -2.08,-0.04267 -4.93695,0.106302 -6.37695,-1.707031 -1.248,-1.578666 -1.07918,-4.884839 -1.08985,-6.826172 V 59.732422 c 0.0747,-3.605333 -0.30848,-4.490172 2.46485,-6.826172 2.592,-0.629333 7.87173,-0.790922 13.28906,-0.794922 z M 40.929688,54.175781 c -5.216,0.04267 -10.279308,0.341834 -12.556641,1.3125 -3.093333,4.309333 -1.717698,19.668793 -1.707031,25.578125 0,2.453333 -0.404969,6.837053 1.707031,8.511719 1.429333,1.130666 4.031777,1.055891 5.759765,1.087891 h 18.134766 c 2.122666,0 6.196579,0.245442 7.892578,-1.087891 1.813333,-1.44 1.664365,-4.298907 1.707032,-6.378906 V 61.867188 c -0.04267,-2.08 0.106301,-4.938907 -1.707032,-6.378907 -1.429333,-1.130666 -4.031766,-1.05589 -5.759765,-1.08789 -2.885333,-0.05333 -8.254715,-0.267276 -13.470703,-0.22461 z m 44.800781,0 c -5.215999,0.04267 -10.279308,0.341834 -12.556641,1.3125 -3.093333,4.309333 -1.717698,19.668793 -1.707031,25.578125 0,2.453333 -0.404969,6.837053 1.707031,8.511719 1.429333,1.130666 4.031766,1.055891 5.759766,1.087891 h 18.132812 c 2.122667,0 6.198534,0.245442 7.894534,-1.087891 1.81333,-1.44 1.66241,-4.298907 1.70508,-6.378906 V 61.867188 c -0.0427,-2.08 0.10825,-4.938907 -1.70508,-6.378907 -1.42934,-1.130666 -4.03372,-1.05589 -5.761721,-1.08789 -2.885333,-0.05333 -8.252751,-0.267276 -13.46875,-0.22461 z m 44.800781,0 c -5.216,0.04267 -10.28126,0.341834 -12.55859,1.3125 -3.09334,4.309333 -1.71575,19.668793 -1.70508,25.578125 0,2.453333 -0.40692,6.837053 1.70508,8.511719 1.42933,1.130666 4.03176,1.055891 5.75976,1.087891 h 18.13477 c 2.12266,0 6.19658,0.245442 7.89258,-1.087891 1.81333,-1.44 1.66436,-4.298907 1.70703,-6.378906 V 61.867188 c -0.0427,-2.08 0.1063,-4.938907 -1.70703,-6.378907 -1.42934,-1.130666 -4.03177,-1.05589 -5.75977,-1.08789 -2.88533,-0.05333 -8.25275,-0.267276 -13.46875,-0.22461 z m 44.79883,0 c -5.216,0.04267 -10.27931,0.341834 -12.55664,1.3125 -3.09334,4.309333 -1.7177,19.668793 -1.70703,25.578125 0,2.453333 -0.40497,6.837053 1.70703,8.511719 1.42933,1.130666 4.03176,1.055891 5.75976,1.087891 h 18.13282 c 2.12266,0 6.19853,0.245442 7.89453,-1.087891 1.81333,-1.44 1.66436,-4.298907 1.70703,-6.378906 V 61.867188 c -0.0427,-2.08 0.1063,-4.938907 -1.70703,-6.378907 -1.42934,-1.130666 -4.03177,-1.05589 -5.75977,-1.08789 -2.88533,-0.05333 -8.2547,-0.267276 -13.4707,-0.22461 z m 44.80078,0 c -5.216,0.04267 -10.27931,0.341834 -12.55664,1.3125 -3.09333,4.309333 -1.7177,19.668793 -1.70703,25.578125 0,2.453333 -0.40497,6.837053 1.70703,8.511719 1.42933,1.130666 4.03176,1.055891 5.75976,1.087891 h 18.13282 c 2.12266,0 6.19658,0.245442 7.89258,-1.087891 1.81322,-1.44 1.66436,-4.298907 1.70703,-6.378906 V 61.867188 c -0.0427,-2.08 0.10619,-4.938907 -1.70703,-6.378907 -1.42934,-1.130666 -4.03177,-1.05589 -5.75977,-1.08789 -2.88533,-0.05333 -8.25275,-0.267276 -13.46875,-0.22461 z m 44.79883,0 c -5.216,0.04267 -10.27931,0.341834 -12.55664,1.3125 -3.09334,4.309333 -1.7177,19.668793 -1.70703,25.578125 0,2.453333 -0.40497,6.837053 1.70703,8.511719 1.42933,1.130666 4.03176,1.055891 5.75976,1.087891 h 18.13477 c 2.12266,0 6.19658,0.245442 7.89258,-1.087891 1.81333,-1.44 1.66436,-4.298907 1.70703,-6.378906 V 61.867188 c -0.0427,-2.08 0.1063,-4.938907 -1.70703,-6.378907 -1.42934,-1.130666 -4.03177,-1.05589 -5.75977,-1.08789 -2.88533,-0.05333 -8.2547,-0.267276 -13.4707,-0.22461 z m 44.80078,0 c -5.216,0.04267 -10.27931,0.341834 -12.55664,1.3125 -3.09333,4.309333 -1.7177,19.668793 -1.70703,25.578125 0,2.453333 -0.40497,6.837053 1.70703,8.511719 1.42933,1.130666 4.03176,1.055891 5.75976,1.087891 h 18.13282 c 2.12266,0 6.19657,0.245442 7.89257,-1.087891 1.81334,-1.44 1.66437,-4.298907 1.70704,-6.378906 V 61.867188 c -0.0427,-2.08 0.1063,-4.938907 -1.70704,-6.378907 -1.42933,-1.130666 -4.03176,-1.05589 -5.75976,-1.08789 -2.88533,-0.05333 -8.25275,-0.267276 -13.46875,-0.22461 z m 44.80078,0 c -5.216,0.04267 -10.28126,0.341834 -12.55859,1.3125 -3.09334,4.309333 -1.71575,19.668793 -1.70508,25.578125 0,2.453333 -0.40692,6.837053 1.70508,8.511719 1.42933,1.130666 4.03176,1.055891 5.75976,1.087891 h 18.13477 c 2.12266,0 6.19658,0.245442 7.89258,-1.087891 1.81333,-1.44 1.66436,-4.298907 1.70703,-6.378906 V 61.867188 c -0.0427,-2.08 0.1063,-4.938907 -1.70703,-6.378907 -1.42934,-1.130666 -4.03177,-1.05589 -5.75977,-1.08789 -2.88533,-0.05333 -8.25275,-0.267276 -13.46875,-0.22461 z m 44.79883,0 c -5.216,0.04267 -10.27931,0.341834 -12.55664,1.3125 -3.09334,4.309333 -1.7177,19.668793 -1.70703,25.578125 0,2.453333 -0.40497,6.837053 1.70703,8.511719 1.42933,1.130666 4.03176,1.055891 5.75976,1.087891 h 18.13282 c 2.12266,0 6.19853,0.245442 7.89453,-1.087891 1.81333,-1.44 1.66252,-4.298907 1.70507,-6.378906 V 61.867188 c -0.0427,-2.08 0.10826,-4.938907 -1.70507,-6.378907 -1.42934,-1.130666 -4.03177,-1.05589 -5.75977,-1.08789 -2.88533,-0.05333 -8.2547,-0.267276 -13.4707,-0.22461 z m 43.73437,0 c -5.216,0.04267 -10.28126,0.341834 -12.55859,1.3125 -3.09333,4.309333 -1.71575,19.668793 -1.70508,25.578125 0,2.453333 -0.40692,6.837053 1.70508,8.511719 1.42933,1.130666 4.03188,1.055891 5.75976,1.087891 h 18.13477 c 2.12267,0 6.19658,0.245442 7.89258,-1.087891 1.81333,-1.44 1.66436,-4.298907 1.70703,-6.378906 V 61.867188 c -0.0427,-2.08 0.1063,-4.938907 -1.70703,-6.378907 -1.42933,-1.130666 -4.03177,-1.05589 -5.75977,-1.08789 -2.88533,-0.05333 -8.25275,-0.267276 -13.46875,-0.22461 z m 44.79883,0 c -5.216,0.04267 -10.27931,0.341834 -12.55664,1.3125 -3.09333,4.309333 -1.7177,19.668793 -1.70703,25.578125 0,2.453333 -0.40497,6.837053 1.70703,8.511719 1.42933,1.130666 4.03177,1.055891 5.75977,1.087891 h 18.13281 c 2.12267,0 6.19853,0.245442 7.89453,-1.087891 1.81333,-1.44 1.66436,-4.298907 1.70703,-6.378906 V 61.867188 c -0.0427,-2.08 0.1063,-4.938907 -1.70703,-6.378907 -1.42933,-1.130666 -4.03177,-1.05589 -5.75977,-1.08789 -2.88533,-0.05333 -8.2547,-0.267276 -13.4707,-0.22461 z m 44.80078,0 c -5.216,0.04267 -10.27931,0.341834 -12.55664,1.3125 -3.09333,4.309333 -1.7177,19.668793 -1.70703,25.578125 0,2.453333 -0.40497,6.837053 1.70703,8.511719 1.42933,1.130666 4.03177,1.055891 5.75977,1.087891 H 544 c 2.12267,0 6.19658,0.245442 7.89258,-1.087891 1.81333,-1.44 1.66436,-4.298907 1.70703,-6.378906 V 61.867188 c -0.0427,-2.08 0.1063,-4.938907 -1.70703,-6.378907 -1.42933,-1.130666 -4.03177,-1.05589 -5.75977,-1.08789 -2.88533,-0.05333 -8.25275,-0.267276 -13.46875,-0.22461 z M 39.220703,123.57812 c 5.417333,-0.004 10.971949,0.14897 14.113281,0.1543 3.136,0.0107 7.433969,-0.50049 9.417969,2.46485 C 64.01062,128.1066 63.968,131.12598 64,133.33398 v 19.19922 c 0,2.95467 0.341864,7.77668 -1.855469,10.02735 -1.717333,1.76 -4.405735,1.66436 -6.677734,1.70703 H 30.933594 c -2.08,-0.0427 -4.938918,0.1063 -6.378906,-1.70703 -1.248,-1.57867 -1.077224,-4.8868 -1.087891,-6.82813 v -24.5332 c 0.07467,-3.60533 -0.310442,-4.49017 2.462891,-6.82617 2.591988,-0.62934 7.873683,-0.79093 13.291015,-0.79493 z m 44.798828,0 c 5.417333,-0.004 10.97196,0.14897 14.113281,0.1543 3.135998,0.0107 7.435918,-0.50049 9.419918,2.46485 1.25867,1.90933 1.21605,4.92871 1.24805,7.13671 v 19.19922 c 0,2.95467 0.33991,7.77668 -1.85742,10.02735 -1.71733,1.76 -4.40378,1.66436 -6.67578,1.70703 H 75.732422 c -2.08,-0.0427 -4.936953,0.1063 -6.376953,-1.70703 -1.248,-1.57867 -1.077224,-4.8868 -1.087891,-6.82813 v -24.5332 c 0.07467,-3.60533 -0.310442,-4.49017 2.462891,-6.82617 2.591999,-0.62934 7.87173,-0.79093 13.289062,-0.79493 z m 44.800779,0 c 5.41733,-0.004 10.97195,0.14897 14.11328,0.1543 3.136,0.0107 7.43397,-0.50049 9.41797,2.46485 1.25867,1.90933 1.21605,4.92871 1.24805,7.13671 v 19.19922 c 0,2.95467 0.34186,7.77668 -1.85547,10.02735 -1.71733,1.76 -4.40573,1.66436 -6.67773,1.70703 H 120.5332 c -2.08,-0.0427 -4.9389,0.1063 -6.3789,-1.70703 -1.248,-1.57867 -1.07723,-4.8868 -1.08789,-6.82813 v -24.5332 c 0.0747,-3.60533 -0.30849,-4.49017 2.46484,-6.82617 2.592,-0.62934 7.87173,-0.79093 13.28906,-0.79493 z m 44.79883,0 c 5.41733,-0.004 10.97195,0.14897 14.11328,0.1543 3.136,0.0107 7.43592,-0.50049 9.41992,2.46485 1.25867,1.90933 1.21605,4.92871 1.24805,7.13671 v 19.19922 c 0,2.95467 0.34186,7.77668 -1.85547,10.02735 -1.71733,1.76 -4.40573,1.66436 -6.67773,1.70703 h -24.53321 c -2.08,-0.0427 -4.9389,0.1063 -6.3789,-1.70703 -1.248,-1.57867 -1.07723,-4.8868 -1.08789,-6.82813 v -24.5332 c 0.0747,-3.60533 -0.31044,-4.49017 2.46289,-6.82617 2.592,-0.62934 7.87173,-0.79093 13.28906,-0.79493 z m 44.80078,0 c 5.41733,-0.004 10.97195,0.14897 14.11328,0.1543 3.136,0.0107 7.43397,-0.50049 9.41797,2.46485 1.25867,1.90933 1.21605,4.92871 1.24805,7.13671 v 19.19922 c 0,2.95467 0.34186,7.77668 -1.85547,10.02735 -1.71733,1.76 -4.40573,1.66436 -6.67773,1.70703 h -24.53321 c -2.08,-0.0427 -4.9389,0.1063 -6.3789,-1.70703 -1.248,-1.57867 -1.07723,-4.8868 -1.08789,-6.82813 v -24.5332 c 0.0747,-3.60533 -0.30849,-4.49017 2.46484,-6.82617 2.592,-0.62934 7.87173,-0.79093 13.28906,-0.79493 z m 44.80078,0 c 5.41734,-0.004 10.97195,0.14897 14.11328,0.1543 3.136,0.0107 7.43397,-0.50049 9.41797,2.46485 1.25867,1.90933 1.21605,4.92871 1.24805,7.13671 v 19.19922 c 0,2.95467 0.34186,7.77668 -1.85547,10.02735 -1.71733,1.76 -4.40573,1.66436 -6.67773,1.70703 h -24.53321 c -2.08,-0.0427 -4.9389,0.1063 -6.3789,-1.70703 -1.248,-1.57867 -1.07723,-4.8868 -1.08789,-6.82813 v -24.5332 c 0.0747,-3.60533 -0.31045,-4.49017 2.46289,-6.82617 2.592,-0.62934 7.87368,-0.79093 13.29101,-0.79493 z m 44.79883,0 c 5.41733,-0.004 10.97195,0.14897 14.11328,0.1543 3.136,0.0107 7.43592,-0.50049 9.41992,2.46485 1.25867,1.90933 1.21605,4.92871 1.24805,7.13671 v 19.19922 c 0,2.95467 0.33991,7.77668 -1.85742,10.02735 -1.71733,1.76 -4.40378,1.66436 -6.67578,1.70703 h -24.53516 c -2.08,-0.0427 -4.93695,0.1063 -6.37695,-1.70703 -1.248,-1.57867 -1.07723,-4.8868 -1.08789,-6.82813 v -24.5332 c 0.0747,-3.60533 -0.31044,-4.49017 2.46289,-6.82617 2.592,-0.62934 7.87173,-0.79093 13.28906,-0.79493 z m 44.80078,0 c 5.41733,-0.004 10.97195,0.14897 14.11328,0.1543 3.136,0.0107 7.43397,-0.50049 9.41797,2.46485 1.25867,1.90933 1.21605,4.92871 1.24805,7.13671 v 19.19922 c 0,2.95467 0.34186,7.77668 -1.85547,10.02735 -1.71733,1.76 -4.40573,1.66436 -6.67773,1.70703 H 344.5332 c -2.08,-0.0427 -4.9389,0.1063 -6.3789,-1.70703 -1.248,-1.57867 -1.07723,-4.8868 -1.08789,-6.82813 v -24.5332 c 0.0747,-3.60533 -0.30849,-4.49017 2.46484,-6.82617 2.592,-0.62934 7.87173,-0.79093 13.28906,-0.79493 z m 44.79883,0 c 5.41733,-0.004 10.97195,0.14897 14.11328,0.1543 3.136,0.0107 7.43592,-0.50049 9.41992,2.46485 1.25867,1.90933 1.21605,4.92871 1.24805,7.13671 v 19.19922 c 0,2.95467 0.33991,7.77668 -1.85742,10.02735 -1.71733,1.76 -4.40378,1.66436 -6.67578,1.70703 h -24.53321 c -2.08,-0.0427 -4.9389,0.1063 -6.3789,-1.70703 -1.248,-1.57867 -1.07723,-4.8868 -1.08789,-6.82813 v -24.5332 c 0.0747,-3.60533 -0.31044,-4.49017 2.46289,-6.82617 2.592,-0.62934 7.87173,-0.79093 13.28906,-0.79493 z m -357.755859,2.06446 c -5.215999,0.0427 -10.279307,0.34183 -12.55664,1.3125 -3.093333,4.30933 -1.717698,19.66879 -1.707032,25.57812 0,2.45334 -0.404968,6.83706 1.707032,8.51172 1.429333,1.13067 4.031766,1.05589 5.759765,1.08789 h 18.132813 c 2.122666,0 6.198531,0.24544 7.894531,-1.08789 1.813333,-1.44 1.664365,-4.2989 1.707031,-6.3789 v -21.33204 c -0.04267,-2.08 0.106302,-4.9389 -1.707031,-6.3789 -1.429333,-1.13067 -4.031766,-1.05589 -5.759766,-1.08789 -2.885332,-0.0533 -8.254704,-0.26728 -13.470703,-0.22461 z m 44.800781,0 c -5.215988,0.0427 -10.279307,0.34183 -12.55664,1.3125 -3.093333,4.30933 -1.717698,19.66879 -1.707031,25.57812 0,2.45334 -0.404969,6.83706 1.707031,8.51172 1.429333,1.13067 4.031766,1.05589 5.759766,1.08789 H 96 c 2.122666,0 6.19658,0.24544 7.89258,-1.08789 1.81333,-1.44 1.66436,-4.2989 1.70703,-6.3789 v -21.33204 c -0.0427,-2.08 0.1063,-4.9389 -1.70703,-6.3789 -1.42933,-1.13067 -4.031768,-1.05589 -5.759768,-1.08789 -2.885321,-0.0533 -8.25275,-0.26728 -13.46875,-0.22461 z m 44.800778,0 c -5.216,0.0427 -10.28126,0.34183 -12.55859,1.3125 -3.09333,4.30933 -1.7177,19.66879 -1.70703,25.57812 0,2.45334 -0.40497,6.83706 1.70703,8.51172 1.42933,1.13067 4.03177,1.05589 5.75977,1.08789 h 18.13476 c 2.12267,0 6.19658,0.24544 7.89258,-1.08789 1.81333,-1.44 1.66436,-4.2989 1.70703,-6.3789 v -21.33204 c -0.0427,-2.08 0.1063,-4.9389 -1.70703,-6.3789 -1.42933,-1.13067 -4.03177,-1.05589 -5.75977,-1.08789 -2.88533,-0.0533 -8.25275,-0.26728 -13.46875,-0.22461 z m 44.79883,0 c -5.216,0.0427 -10.27931,0.34183 -12.55664,1.3125 -3.09333,4.30933 -1.7177,19.66879 -1.70703,25.57812 0,2.45334 -0.40497,6.83706 1.70703,8.51172 1.42933,1.13067 4.03177,1.05589 5.75977,1.08789 h 18.13281 c 2.12267,0 6.19853,0.24544 7.89453,-1.08789 1.81333,-1.44 1.66241,-4.2989 1.70508,-6.3789 v -21.33204 c -0.0427,-2.08 0.10825,-4.9389 -1.70508,-6.3789 -1.42933,-1.13067 -4.03372,-1.05589 -5.76172,-1.08789 -2.88533,-0.0533 -8.25275,-0.26728 -13.46875,-0.22461 z m 44.80078,0 c -5.216,0.0427 -10.28126,0.34183 -12.55859,1.3125 -3.09333,4.30933 -1.71575,19.66879 -1.70508,25.57812 0,2.45334 -0.40692,6.83706 1.70508,8.51172 1.42933,1.13067 4.03372,1.05589 5.76172,1.08789 h 18.13281 c 2.12267,0 6.19658,0.24544 7.89258,-1.08789 1.81333,-1.44 1.66436,-4.2989 1.70703,-6.3789 v -21.33204 c -0.0427,-2.08 0.1063,-4.9389 -1.70703,-6.3789 -1.42933,-1.13067 -4.03177,-1.05589 -5.75977,-1.08789 -2.88533,-0.0533 -8.25275,-0.26728 -13.46875,-0.22461 z m 44.79883,0 c -5.216,0.0427 -10.27931,0.34183 -12.55664,1.3125 -3.09333,4.30933 -1.7177,19.66879 -1.70703,25.57812 0,2.45334 -0.40497,6.83706 1.70703,8.51172 1.42933,1.13067 4.03177,1.05589 5.75977,1.08789 h 18.13281 c 2.12267,0 6.19853,0.24544 7.89453,-1.08789 1.81333,-1.44 1.66436,-4.2989 1.70703,-6.3789 v -21.33204 c -0.0427,-2.08 0.1063,-4.9389 -1.70703,-6.3789 -1.42933,-1.13067 -4.03177,-1.05589 -5.75977,-1.08789 -2.88533,-0.0533 -8.2547,-0.26728 -13.4707,-0.22461 z m 44.80078,0 c -5.216,0.0427 -10.27931,0.34183 -12.55664,1.3125 -3.09333,4.30933 -1.7177,19.66879 -1.70703,25.57812 0,2.45334 -0.40497,6.83706 1.70703,8.51172 1.42933,1.13067 4.03177,1.05589 5.75977,1.08789 H 320 c 2.12267,0 6.19658,0.24544 7.89258,-1.08789 1.81333,-1.44 1.66436,-4.2989 1.70703,-6.3789 v -21.33204 c -0.0427,-2.08 0.1063,-4.9389 -1.70703,-6.3789 -1.42933,-1.13067 -4.03177,-1.05589 -5.75977,-1.08789 -2.88533,-0.0533 -8.25275,-0.26728 -13.46875,-0.22461 z m 44.80078,0 c -5.216,0.0427 -10.28126,0.34183 -12.55859,1.3125 -3.09333,4.30933 -1.7177,19.66879 -1.70703,25.57812 0,2.45334 -0.40497,6.83706 1.70703,8.51172 1.42933,1.13067 4.03177,1.05589 5.75977,1.08789 h 18.13476 c 2.12267,0 6.19658,0.24544 7.89258,-1.08789 1.81333,-1.44 1.66436,-4.2989 1.70703,-6.3789 v -21.33204 c -0.0427,-2.08 0.1063,-4.9389 -1.70703,-6.3789 -1.42933,-1.13067 -4.03177,-1.05589 -5.75977,-1.08789 -2.88533,-0.0533 -8.25275,-0.26728 -13.46875,-0.22461 z m 44.79883,0 c -5.216,0.0427 -10.27931,0.34183 -12.55664,1.3125 -3.09333,4.30933 -1.7177,19.66879 -1.70703,25.57812 0,2.45334 -0.40497,6.83706 1.70703,8.51172 1.42933,1.13067 4.03177,1.05589 5.75977,1.08789 h 18.13281 c 2.12267,0 6.19853,0.24544 7.89453,-1.08789 1.81333,-1.44 1.66241,-4.2989 1.70508,-6.3789 v -21.33204 c -0.0427,-2.08 0.10825,-4.9389 -1.70508,-6.3789 -1.42933,-1.13067 -4.03372,-1.05589 -5.76172,-1.08789 -2.88533,-0.0533 -8.25275,-0.26728 -13.46875,-0.22461 z m -90.24414,39.53515 c 5.41733,-0.004 10.97195,0.15092 14.11328,0.15625 3.136,0.0107 7.43592,-0.50244 9.41992,2.4629 1.25867,1.90922 1.21605,4.92871 1.24805,7.13671 v 19.19922 c 0,2.95467 0.33991,7.77668 -1.85742,10.02735 -1.71733,1.76 -4.40378,1.66436 -6.67578,1.70703 h -24.53516 c -2.08,-0.0427 -4.93695,0.1063 -6.37695,-1.70703 -1.248,-1.57867 -1.07723,-4.88484 -1.08789,-6.82618 v -24.5332 c 0.0747,-3.60533 -0.31044,-4.49212 2.46289,-6.82812 2.592,-0.62934 7.87173,-0.79093 13.28906,-0.79493 z m 44.80078,0 c 5.41733,-0.004 10.97195,0.15092 14.11328,0.15625 3.136,0.0107 7.43397,-0.50244 9.41797,2.4629 1.25867,1.90922 1.21605,4.92871 1.24805,7.13671 v 19.19922 c 0,2.95467 0.34186,7.77668 -1.85547,10.02735 -1.71733,1.76 -4.40573,1.66436 -6.67773,1.70703 H 344.5332 c -2.08,-0.0427 -4.9389,0.1063 -6.3789,-1.70703 -1.248,-1.57867 -1.07723,-4.88484 -1.08789,-6.82618 v -24.5332 c 0.0747,-3.60533 -0.30849,-4.49212 2.46484,-6.82812 2.592,-0.62934 7.87173,-0.79093 13.28906,-0.79493 z m 44.79883,0 c 5.41733,-0.004 10.97195,0.15092 14.11328,0.15625 3.136,0.0107 7.43592,-0.50244 9.41992,2.4629 1.25867,1.90922 1.21605,4.92871 1.24805,7.13671 v 19.19922 c 0,2.95467 0.33991,7.77668 -1.85742,10.02735 -1.71733,1.76 -4.40378,1.66436 -6.67578,1.70703 h -24.53321 c -2.08,-0.0427 -4.9389,0.1063 -6.3789,-1.70703 -1.248,-1.57867 -1.07723,-4.88484 -1.08789,-6.82618 v -24.5332 c 0.0747,-3.60533 -0.31044,-4.49212 2.46289,-6.82812 2.592,-0.62934 7.87173,-0.79093 13.28906,-0.79493 z m -224,1.06641 c 5.41733,-0.004 10.97195,0.15092 14.11328,0.15625 3.136,0.0107 7.43592,-0.50244 9.41992,2.46289 1.25867,1.90933 1.21605,4.92872 1.24805,7.13672 v 19.19922 c 0,2.95466 0.34186,7.77668 -1.85547,10.02734 -1.71733,1.76 -4.40573,1.66437 -6.67773,1.70703 h -24.53321 c -2.08,-0.0427 -4.9389,0.10631 -6.3789,-1.70703 -1.248,-1.57866 -1.07723,-4.88484 -1.08789,-6.82617 v -24.5332 c 0.0747,-3.60534 -0.31044,-4.49213 2.46289,-6.82813 2.592,-0.62933 7.87173,-0.79092 13.28906,-0.79492 z m 44.80078,0 c 5.41733,-0.004 10.97195,0.15092 14.11328,0.15625 3.136,0.0107 7.43397,-0.50244 9.41797,2.46289 1.25867,1.90933 1.21605,4.92872 1.24805,7.13672 v 19.19922 c 0,2.95466 0.34186,7.77668 -1.85547,10.02734 -1.71733,1.76 -4.40573,1.66437 -6.67773,1.70703 h -24.53321 c -2.08,-0.0427 -4.9389,0.10631 -6.3789,-1.70703 -1.248,-1.57866 -1.07723,-4.88484 -1.08789,-6.82617 v -24.5332 c 0.0747,-3.60534 -0.30849,-4.49213 2.46484,-6.82813 2.592,-0.62933 7.87173,-0.79092 13.28906,-0.79492 z m 44.80078,0 c 5.41734,-0.004 10.97195,0.15092 14.11328,0.15625 3.136,0.0107 7.43397,-0.50244 9.41797,2.46289 C 288.01062,170.77261 287.968,173.792 288,176 v 19.19922 c 0,2.95466 0.34186,7.77668 -1.85547,10.02734 -1.71733,1.76 -4.40573,1.66437 -6.67773,1.70703 h -24.53321 c -2.08,-0.0427 -4.9389,0.10631 -6.3789,-1.70703 -1.248,-1.57866 -1.07723,-4.88484 -1.08789,-6.82617 v -24.5332 c 0.0747,-3.60534 -0.31045,-4.49213 2.46289,-6.82813 2.592,-0.62933 7.87368,-0.79092 13.29101,-0.79492 z m 45.44336,0.99805 c -5.216,0.0427 -10.27931,0.34183 -12.55664,1.3125 -3.09333,4.30933 -1.7177,19.66879 -1.70703,25.57812 0,2.45334 -0.40497,6.83705 1.70703,8.51172 1.42933,1.13067 4.03177,1.05589 5.75977,1.08789 H 320 c 2.12267,0 6.19658,0.24544 7.89258,-1.08789 1.81333,-1.44 1.66436,-4.29695 1.70703,-6.37695 v -21.33399 c -0.0427,-2.08 0.1063,-4.9389 -1.70703,-6.3789 -1.42933,-1.13067 -4.03177,-1.05589 -5.75977,-1.08789 -2.88533,-0.0533 -8.25275,-0.26728 -13.46875,-0.22461 z m 44.80078,0 c -5.216,0.0427 -10.28126,0.34183 -12.55859,1.3125 -3.09333,4.30933 -1.7177,19.66879 -1.70703,25.57812 0,2.45334 -0.40497,6.83705 1.70703,8.51172 1.42933,1.13067 4.03177,1.05589 5.75977,1.08789 h 18.13476 c 2.12267,0 6.19658,0.24544 7.89258,-1.08789 1.81333,-1.44 1.66436,-4.29695 1.70703,-6.37695 v -21.33399 c -0.0427,-2.08 0.1063,-4.9389 -1.70703,-6.3789 -1.42933,-1.13067 -4.03177,-1.05589 -5.75977,-1.08789 -2.88533,-0.0533 -8.25275,-0.26728 -13.46875,-0.22461 z m 44.79883,0 c -5.216,0.0427 -10.27931,0.34183 -12.55664,1.3125 -3.09333,4.30933 -1.7177,19.66879 -1.70703,25.57812 0,2.45334 -0.40497,6.83705 1.70703,8.51172 1.42933,1.13067 4.03177,1.05589 5.75977,1.08789 h 18.13281 c 2.12267,0 6.19853,0.24544 7.89453,-1.08789 1.81333,-1.44 1.66241,-4.29695 1.70508,-6.37695 v -21.33399 c -0.0427,-2.08 0.10825,-4.9389 -1.70508,-6.3789 -1.42933,-1.13067 -4.03372,-1.05589 -5.76172,-1.08789 -2.88533,-0.0533 -8.25275,-0.26728 -13.46875,-0.22461 z m -224,1.0664 c -5.216,0.0427 -10.27931,0.34184 -12.55664,1.3125 -3.09333,4.30934 -1.7177,19.6688 -1.70703,25.57813 0,2.45333 -0.40497,6.839 1.70703,8.51367 1.42933,1.13067 4.03177,1.05589 5.75977,1.08789 h 18.13281 c 2.12267,0 6.19853,0.24544 7.89453,-1.08789 1.81333,-1.44 1.66241,-4.29891 1.70508,-6.37891 V 176 c -0.0427,-2.08 0.10825,-4.93891 -1.70508,-6.37891 -1.42933,-1.13066 -4.03372,-1.05589 -5.76172,-1.08789 -2.88533,-0.0533 -8.25275,-0.26727 -13.46875,-0.22461 z m 44.80078,0 c -5.216,0.0427 -10.28126,0.34184 -12.55859,1.3125 -3.09333,4.30934 -1.71575,19.6688 -1.70508,25.57813 0,2.45333 -0.40692,6.839 1.70508,8.51367 1.42933,1.13067 4.03372,1.05589 5.76172,1.08789 h 18.13281 c 2.12267,0 6.19658,0.24544 7.89258,-1.08789 1.81333,-1.44 1.66436,-4.29891 1.70703,-6.37891 V 176 c -0.0427,-2.08 0.1063,-4.93891 -1.70703,-6.37891 -1.42933,-1.13066 -4.03177,-1.05589 -5.75977,-1.08789 -2.88533,-0.0533 -8.25275,-0.26727 -13.46875,-0.22461 z m 44.79883,0 c -5.216,0.0427 -10.27931,0.34184 -12.55664,1.3125 -3.09333,4.30934 -1.7177,19.6688 -1.70703,25.57813 0,2.45333 -0.40497,6.839 1.70703,8.51367 1.42933,1.13067 4.03177,1.05589 5.75977,1.08789 h 18.13281 c 2.12267,0 6.19853,0.24544 7.89453,-1.08789 1.81333,-1.44 1.66436,-4.29891 1.70703,-6.37891 V 176 c -0.0427,-2.08 0.1063,-4.93891 -1.70703,-6.37891 -1.42933,-1.13066 -4.03177,-1.05589 -5.75977,-1.08789 -2.88533,-0.0533 -8.2547,-0.26727 -13.4707,-0.22461 z m -223.576171,0.0684 c 5.417333,-0.004 10.971949,0.15092 14.113282,0.15625 3.135999,0.0107 7.433969,-0.50049 9.417968,2.46485 1.258667,1.90933 1.216047,4.92676 1.248047,7.13476 v 19.20117 c 0,2.95467 0.341853,7.77473 -1.855468,10.0254 -1.717334,1.75988 -4.405735,1.66436 -6.677735,1.70703 H 32 c -2.08,-0.0427 -4.938906,0.10619 -6.378906,-1.70703 -1.248,-1.57867 -1.077224,-4.88484 -1.087891,-6.82618 V 176 c 0.07467,-3.60533 -0.308489,-4.49017 2.464844,-6.82617 2.591999,-0.62934 7.87173,-0.79288 13.289062,-0.79688 z m 44.798829,0 c 5.417321,-0.004 10.971948,0.15092 14.113281,0.15625 3.136001,0.0107 7.435921,-0.50049 9.419921,2.46485 1.25867,1.90933 1.21605,4.92676 1.24805,7.13476 v 19.20117 c 0,2.95467 0.33991,7.77473 -1.85742,10.0254 -1.71734,1.75988 -4.40379,1.66436 -6.67579,1.70703 H 76.800781 c -2.079999,-0.0427 -4.938906,0.10619 -6.378906,-1.70703 -1.248,-1.57867 -1.077224,-4.88484 -1.087891,-6.82618 V 176 c 0.07467,-3.60533 -0.310442,-4.49017 2.462891,-6.82617 2.592,-0.62934 7.87173,-0.79288 13.289063,-0.79688 z m 44.800782,0 c 5.41733,-0.004 10.97195,0.15092 14.11328,0.15625 3.136,0.0107 7.43397,-0.50049 9.41797,2.46485 1.25867,1.90933 1.21605,4.92676 1.24805,7.13476 v 19.20117 c 0,2.95467 0.34186,7.77473 -1.85547,10.0254 -1.71734,1.75988 -4.40574,1.66436 -6.67774,1.70703 h -24.5332 c -2.08,-0.0427 -4.93891,0.10619 -6.37891,-1.70703 -1.248,-1.57867 -1.07722,-4.88484 -1.08789,-6.82618 V 176 c 0.0747,-3.60533 -0.30849,-4.49017 2.46485,-6.82617 2.592,-0.62934 7.87173,-0.79288 13.28906,-0.79688 z m -88.957032,2.06641 c -5.216,0.0427 -10.279308,0.33988 -12.556641,1.31055 -3.093333,4.30933 -1.717698,19.67074 -1.707031,25.58007 0,2.45334 -0.404969,6.83706 1.707031,8.51172 1.429333,1.13067 4.031777,1.05589 5.759765,1.08789 h 18.134766 c 2.122666,0 6.196579,0.24545 7.892578,-1.08789 1.813333,-1.44 1.664365,-4.2989 1.707032,-6.3789 v -21.33399 c -0.04267,-2.08 0.106301,-4.9389 -1.707032,-6.3789 -1.429333,-1.13067 -4.031766,-1.05589 -5.759765,-1.08789 -2.885333,-0.0533 -8.254715,-0.26533 -13.470703,-0.22266 z m 44.800781,0 c -5.215999,0.0427 -10.279308,0.33988 -12.556641,1.31055 -3.093333,4.30933 -1.717698,19.67074 -1.707031,25.58007 0,2.45334 -0.404969,6.83706 1.707031,8.51172 1.429333,1.13067 4.031766,1.05589 5.759766,1.08789 h 18.132812 c 2.122667,0 6.198534,0.24545 7.894534,-1.08789 1.81333,-1.44 1.66241,-4.2989 1.70508,-6.3789 v -21.33399 c -0.0427,-2.08 0.10825,-4.9389 -1.70508,-6.3789 -1.42934,-1.13067 -4.03372,-1.05589 -5.761721,-1.08789 -2.885333,-0.0533 -8.252751,-0.26533 -13.46875,-0.22266 z m 44.800781,0 c -5.216,0.0427 -10.28126,0.33988 -12.55859,1.31055 -3.09334,4.30933 -1.71575,19.67074 -1.70508,25.58007 0,2.45334 -0.40692,6.83706 1.70508,8.51172 1.42933,1.13067 4.03176,1.05589 5.75976,1.08789 h 18.13477 c 2.12266,0 6.19658,0.24545 7.89258,-1.08789 1.81333,-1.44 1.66436,-4.2989 1.70703,-6.3789 v -21.33399 c -0.0427,-2.08 0.1063,-4.9389 -1.70703,-6.3789 -1.42934,-1.13067 -4.03177,-1.05589 -5.75977,-1.08789 -2.88533,-0.0533 -8.25275,-0.26533 -13.46875,-0.22266 z m 44.66406,43.79297 c 5.68933,-0.009 11.52521,0.14273 14.67188,0.16406 2.13333,0.0107 5.31076,-0.12811 7.13476,1.08789 2.51734,1.68533 2.41151,4.75731 2.46485,7.44531 v 20.26563 c 0,2.95466 0.34186,7.77668 -1.85547,10.02734 -1.71733,1.76 -4.40574,1.66437 -6.67774,1.70703 h -24.5332 c -2.08,-0.0427 -4.93891,0.10631 -6.37891,-1.70703 -1.248,-1.57866 -1.07722,-4.88484 -1.08789,-6.82617 v -24.5332 c 0.0747,-3.60534 -0.31044,-4.49213 2.46289,-6.82813 2.56534,-0.624 8.1095,-0.7934 13.79883,-0.80273 z m -134.908201,0.008 c 5.417333,-0.004 10.971949,0.15092 14.113282,0.15625 3.135999,0.0107 7.433969,-0.50244 9.417968,2.46289 1.258667,1.90933 1.216047,4.92872 1.248047,7.13672 v 19.19922 c 0,2.95466 0.341853,7.77668 -1.855468,10.02734 -1.717334,1.76 -4.405735,1.66437 -6.677735,1.70703 H 32 c -2.08,-0.0427 -4.938906,0.10631 -6.378906,-1.70703 -1.248,-1.57866 -1.077224,-4.88484 -1.087891,-6.82617 v -24.5332 c 0.07467,-3.60534 -0.308489,-4.49213 2.464844,-6.82813 2.591999,-0.62933 7.87173,-0.79092 13.289062,-0.79492 z m 44.798829,0 c 5.417321,-0.004 10.971948,0.15092 14.113281,0.15625 3.136001,0.0107 7.435921,-0.50244 9.419921,2.46289 1.25867,1.90933 1.21605,4.92872 1.24805,7.13672 v 19.19922 c 0,2.95466 0.33991,7.77668 -1.85742,10.02734 -1.71734,1.76 -4.40379,1.66437 -6.67579,1.70703 H 76.800781 c -2.079999,-0.0427 -4.938906,0.10631 -6.378906,-1.70703 -1.248,-1.57866 -1.077224,-4.88484 -1.087891,-6.82617 v -24.5332 c 0.07467,-3.60534 -0.310442,-4.49213 2.462891,-6.82813 2.592,-0.62933 7.87173,-0.79092 13.289063,-0.79492 z m 44.800782,0 c 5.41733,-0.004 10.97195,0.15092 14.11328,0.15625 3.136,0.0107 7.43397,-0.50244 9.41797,2.46289 1.25867,1.90933 1.21605,4.92872 1.24805,7.13672 v 19.19922 c 0,2.95466 0.34186,7.77668 -1.85547,10.02734 -1.71734,1.76 -4.40574,1.66437 -6.67774,1.70703 h -24.5332 c -2.08,-0.0427 -4.93891,0.10631 -6.37891,-1.70703 -1.248,-1.57866 -1.07722,-4.88484 -1.08789,-6.82617 v -24.5332 c 0.0747,-3.60534 -0.30849,-4.49213 2.46485,-6.82813 2.592,-0.62933 7.87173,-0.79092 13.28906,-0.79492 z m 89.59961,0 c 5.41733,-0.004 10.97195,0.15092 14.11328,0.15625 3.136,0.0107 7.43592,-0.50244 9.41992,2.46289 1.25867,1.90933 1.21605,4.92872 1.24805,7.13672 v 19.19922 c 0,2.95466 0.33991,7.77668 -1.85742,10.02734 -1.71734,1.76 -4.40574,1.66437 -6.67774,1.70703 h -24.5332 c -2.08,-0.0427 -4.93695,0.10631 -6.37695,-1.70703 -1.248,-1.57866 -1.07918,-4.88484 -1.08985,-6.82617 v -24.5332 c 0.0747,-3.60534 -0.30849,-4.49213 2.46485,-6.82813 2.592,-0.62933 7.87173,-0.79092 13.28906,-0.79492 z m 44.80078,0 c 5.41733,-0.004 10.97195,0.15092 14.11328,0.15625 3.136,0.0107 7.43397,-0.50244 9.41797,2.46289 1.25867,1.90933 1.21605,4.92872 1.24805,7.13672 v 19.19922 c 0,2.95466 0.34186,7.77668 -1.85547,10.02734 -1.71734,1.76 -4.40574,1.66437 -6.67774,1.70703 H 256 c -2.08,-0.0427 -4.93891,0.10631 -6.37891,-1.70703 -1.248,-1.57866 -1.07722,-4.88484 -1.08789,-6.82617 v -24.5332 c 0.0747,-3.60534 -0.30849,-4.49213 2.46485,-6.82813 2.592,-0.62933 7.87173,-0.79092 13.28906,-0.79492 z m 44.79883,0 c 5.41733,-0.004 10.97195,0.15092 14.11328,0.15625 3.136,0.0107 7.43592,-0.50244 9.41992,2.46289 1.25867,1.90933 1.21605,4.92872 1.24805,7.13672 v 19.19922 c 0,2.95466 0.33991,7.77668 -1.85742,10.02734 -1.71734,1.76 -4.40379,1.66437 -6.67579,1.70703 h -24.5332 c -2.08,-0.0427 -4.93902,0.10631 -6.3789,-1.70703 -1.248,-1.57866 -1.07723,-4.88484 -1.0879,-6.82617 v -24.5332 c 0.0747,-3.60534 -0.31044,-4.49213 2.4629,-6.82813 2.59188,-0.62933 7.87173,-0.79092 13.28906,-0.79492 z m 44.80078,0 c 5.41733,-0.004 10.97195,0.15092 14.11328,0.15625 3.136,0.0107 7.43397,-0.50244 9.41797,2.46289 1.25867,1.90933 1.21605,4.92872 1.24805,7.13672 v 19.19922 c 0,2.95466 0.34186,7.77668 -1.85547,10.02734 -1.71734,1.76 -4.40574,1.66437 -6.67774,1.70703 h -24.5332 c -2.08,-0.0427 -4.93891,0.10631 -6.37891,-1.70703 -1.248,-1.57866 -1.07722,-4.88484 -1.08789,-6.82617 v -24.5332 c 0.0747,-3.60534 -0.30849,-4.49213 2.46485,-6.82813 2.592,-0.62933 7.87173,-0.79092 13.28906,-0.79492 z m 44.80078,0 c 5.41733,-0.004 10.97195,0.15092 14.11328,0.15625 3.136,0.0107 7.43397,-0.50244 9.41797,2.46289 1.25867,1.90933 1.21605,4.92872 1.24805,7.13672 v 19.19922 c 0,2.95466 0.34186,7.77668 -1.85547,10.02734 -1.71733,1.76 -4.40574,1.66437 -6.67774,1.70703 h -24.5332 c -2.08,-0.0427 -4.93891,0.10631 -6.37891,-1.70703 -1.248,-1.57866 -1.07722,-4.88484 -1.08789,-6.82617 v -24.5332 c 0.0747,-3.60534 -0.31044,-4.49213 2.46289,-6.82813 2.592,-0.62933 7.87369,-0.79092 13.29102,-0.79492 z m -357.757812,2.06445 c -5.216,0.0427 -10.279308,0.34184 -12.556641,1.3125 -3.093333,4.30934 -1.717698,19.6688 -1.707031,25.57813 0,2.45333 -0.404969,6.839 1.707031,8.51367 1.429333,1.13067 4.031777,1.05589 5.759765,1.08789 h 18.134766 c 2.122666,0 6.196579,0.24544 7.892578,-1.08789 1.813333,-1.44 1.664365,-4.29891 1.707032,-6.37891 V 224 c -0.04267,-2.08 0.106301,-4.93891 -1.707032,-6.37891 -1.429333,-1.13066 -4.031766,-1.05589 -5.759765,-1.08789 -2.885333,-0.0533 -8.254715,-0.26727 -13.470703,-0.22461 z m 44.800781,0 c -5.215999,0.0427 -10.279308,0.34184 -12.556641,1.3125 -3.093333,4.30934 -1.717698,19.6688 -1.707031,25.57813 0,2.45333 -0.404969,6.839 1.707031,8.51367 1.429333,1.13067 4.031766,1.05589 5.759766,1.08789 h 18.132812 c 2.122667,0 6.198534,0.24544 7.894534,-1.08789 1.81333,-1.44 1.66241,-4.29891 1.70508,-6.37891 V 224 c -0.0427,-2.08 0.10825,-4.93891 -1.70508,-6.37891 -1.42934,-1.13066 -4.03372,-1.05589 -5.761721,-1.08789 -2.885333,-0.0533 -8.252751,-0.26727 -13.46875,-0.22461 z m 44.800781,0 c -5.216,0.0427 -10.28126,0.34184 -12.55859,1.3125 -3.09334,4.30934 -1.71575,19.6688 -1.70508,25.57813 0,2.45333 -0.40692,6.839 1.70508,8.51367 1.42933,1.13067 4.03176,1.05589 5.75976,1.08789 h 18.13477 c 2.12266,0 6.19658,0.24544 7.89258,-1.08789 1.81333,-1.44 1.66436,-4.29891 1.70703,-6.37891 V 224 c -0.0427,-2.08 0.1063,-4.93891 -1.70703,-6.37891 -1.42934,-1.13066 -4.03177,-1.05589 -5.75977,-1.08789 -2.88533,-0.0533 -8.25275,-0.26727 -13.46875,-0.22461 z m 89.59961,0 c -5.216,0.0427 -10.27931,0.34184 -12.55664,1.3125 -3.09333,4.30934 -1.7177,19.6688 -1.70703,25.57813 0,2.45333 -0.40497,6.839 1.70703,8.51367 1.42933,1.13067 4.03176,1.05589 5.75976,1.08789 h 18.13282 c 2.12266,0 6.19658,0.24544 7.89258,-1.08789 1.81322,-1.44 1.66436,-4.29891 1.70703,-6.37891 V 224 c -0.0427,-2.08 0.10619,-4.93891 -1.70703,-6.37891 -1.42934,-1.13066 -4.03177,-1.05589 -5.75977,-1.08789 -2.88533,-0.0533 -8.25275,-0.26727 -13.46875,-0.22461 z m 44.79883,0 c -5.216,0.0427 -10.27931,0.34184 -12.55664,1.3125 -3.09334,4.30934 -1.7177,19.6688 -1.70703,25.57813 0,2.45333 -0.40497,6.839 1.70703,8.51367 1.42933,1.13067 4.03176,1.05589 5.75976,1.08789 h 18.13477 c 2.12266,0 6.19658,0.24544 7.89258,-1.08789 1.81333,-1.44 1.66436,-4.29891 1.70703,-6.37891 V 224 c -0.0427,-2.08 0.1063,-4.93891 -1.70703,-6.37891 -1.42934,-1.13066 -4.03177,-1.05589 -5.75977,-1.08789 -2.88533,-0.0533 -8.2547,-0.26727 -13.4707,-0.22461 z m 44.80078,0 c -5.216,0.0427 -10.27931,0.34184 -12.55664,1.3125 -3.09333,4.30934 -1.7177,19.6688 -1.70703,25.57813 0,2.45333 -0.40497,6.839 1.70703,8.51367 1.42933,1.13067 4.03176,1.05589 5.75976,1.08789 h 18.13282 c 2.12266,0 6.19657,0.24544 7.89257,-1.08789 1.81334,-1.44 1.66437,-4.29891 1.70704,-6.37891 V 224 c -0.0427,-2.08 0.1063,-4.93891 -1.70704,-6.37891 -1.42933,-1.13066 -4.03176,-1.05589 -5.75976,-1.08789 -2.88533,-0.0533 -8.25275,-0.26727 -13.46875,-0.22461 z m 44.80078,0 c -5.216,0.0427 -10.28126,0.34184 -12.55859,1.3125 -3.09334,4.30934 -1.71575,19.6688 -1.70508,25.57813 0,2.45333 -0.40692,6.839 1.70508,8.51367 1.42933,1.13067 4.03176,1.05589 5.75976,1.08789 h 18.13477 c 2.12266,0 6.19658,0.24544 7.89258,-1.08789 1.81333,-1.44 1.66436,-4.29891 1.70703,-6.37891 V 224 c -0.0427,-2.08 0.1063,-4.93891 -1.70703,-6.37891 -1.42934,-1.13066 -4.03177,-1.05589 -5.75977,-1.08789 -2.88533,-0.0533 -8.25275,-0.26727 -13.46875,-0.22461 z m 44.79883,0 c -5.216,0.0427 -10.27931,0.34184 -12.55664,1.3125 -3.09334,4.30934 -1.7177,19.6688 -1.70703,25.57813 0,2.45333 -0.40497,6.839 1.70703,8.51367 1.42933,1.13067 4.03176,1.05589 5.75976,1.08789 h 18.13282 c 2.12266,0 6.19853,0.24544 7.89453,-1.08789 1.81333,-1.44 1.66252,-4.29891 1.70507,-6.37891 V 224 c -0.0427,-2.08 0.10826,-4.93891 -1.70507,-6.37891 -1.42934,-1.13066 -4.03177,-1.05589 -5.75977,-1.08789 -2.88533,-0.0533 -8.2547,-0.26727 -13.4707,-0.22461 z m -238.26367,1.29102 v 25.59961 l 1.08789,7.89453 6.3789,1.70703 h 20.26758 l 6.37695,-1.70703 1.08985,-7.89453 v -25.59961 z m 366.6875,0.91016 c 5.41733,-0.004 10.97194,0.15091 14.11328,0.15625 3.136,0.0107 7.43397,-0.50049 9.41797,2.46484 1.25866,1.90933 1.21604,4.92872 1.24804,7.13672 v 19.19922 c 0,2.95466 0.34187,7.77667 -1.85547,10.02734 -1.71733,1.76 -4.40573,1.66241 -6.67773,1.70508 h -24.5332 c -2.08,-0.0427 -4.93891,0.10825 -6.37891,-1.70508 -1.248,-1.57867 -1.07722,-4.88679 -1.08789,-6.82812 v -24.53321 c 0.0747,-3.60533 -0.30849,-4.49017 2.46484,-6.82617 2.592,-0.62933 7.87173,-0.79287 13.28907,-0.79687 z m 0.64257,2.0664 c -5.21599,0.0427 -10.2793,0.34184 -12.55664,1.3125 -3.09333,4.30933 -1.71769,19.66879 -1.70703,25.57813 0,2.45333 -0.40497,6.83705 1.70703,8.51172 1.42934,1.13066 4.03177,1.05589 5.75977,1.08789 h 18.13281 c 2.12267,0 6.19853,0.24544 7.89453,-1.08789 1.81334,-1.44 1.66437,-4.29891 1.70703,-6.37891 v -21.33203 c -0.0427,-2.08 0.10631,-4.93891 -1.70703,-6.37891 -1.42933,-1.13066 -4.03176,-1.05589 -5.75976,-1.08789 -2.88534,-0.0533 -8.25471,-0.26727 -13.47071,-0.22461 z M 40.287109,256.91016 c 5.417333,-0.004 10.971949,0.15091 14.113282,0.15625 3.135999,0.0107 7.433969,-0.50049 9.417968,2.46484 1.258667,1.90933 1.216047,4.92677 1.248047,7.13477 v 19.20117 c 0,2.95466 0.341853,7.77472 -1.855468,10.02539 -1.717334,1.76 -4.405735,1.66436 -6.677735,1.70703 H 32 c -2.08,-0.0427 -4.938906,0.1063 -6.378906,-1.70703 -1.248,-1.57867 -1.077224,-4.88484 -1.087891,-6.82617 V 264.5332 c 0.07467,-3.60533 -0.308489,-4.49017 2.464844,-6.82617 2.591999,-0.62933 7.87173,-0.79287 13.289062,-0.79687 z m 44.798829,0 c 5.417321,-0.004 10.971948,0.15091 14.113281,0.15625 3.136001,0.0107 7.435921,-0.50049 9.419921,2.46484 1.25867,1.90933 1.21605,4.92677 1.24805,7.13477 v 19.20117 c 0,2.95466 0.33991,7.77472 -1.85742,10.02539 -1.71734,1.76 -4.40379,1.66436 -6.67579,1.70703 H 76.800781 c -2.079999,-0.0427 -4.938906,0.1063 -6.378906,-1.70703 -1.248,-1.57867 -1.077224,-4.88484 -1.087891,-6.82617 V 264.5332 c 0.07467,-3.60533 -0.310442,-4.49017 2.462891,-6.82617 2.592,-0.62933 7.87173,-0.79287 13.289063,-0.79687 z m 268.800782,0 c 5.41733,-0.004 10.97195,0.15091 14.11328,0.15625 3.136,0.0107 7.43397,-0.50049 9.41797,2.46484 1.25867,1.90933 1.21605,4.92677 1.24805,7.13477 v 19.20117 c 0,2.95466 0.34186,7.77472 -1.85547,10.02539 -1.71734,1.76 -4.40574,1.66436 -6.67774,1.70703 h -24.5332 c -2.08,-0.0427 -4.93891,0.1063 -6.37891,-1.70703 -1.248,-1.57867 -1.07722,-4.88484 -1.08789,-6.82617 V 264.5332 c 0.0747,-3.60533 -0.30849,-4.49017 2.46485,-6.82617 2.592,-0.62933 7.87173,-0.79287 13.28906,-0.79687 z m 44.80078,0 c 5.41733,-0.004 10.97195,0.15091 14.11328,0.15625 3.136,0.0107 7.43397,-0.50049 9.41797,2.46484 1.25867,1.90933 1.21605,4.92677 1.24805,7.13477 v 19.20117 c 0,2.95466 0.34186,7.77472 -1.85547,10.02539 -1.71733,1.76 -4.40574,1.66436 -6.67774,1.70703 h -24.5332 c -2.08,-0.0427 -4.93891,0.1063 -6.37891,-1.70703 -1.248,-1.57867 -1.07722,-4.88484 -1.08789,-6.82617 V 264.5332 c 0.0747,-3.60533 -0.31044,-4.49017 2.46289,-6.82617 2.592,-0.62933 7.87369,-0.79287 13.29102,-0.79687 z m -270.80664,0.008 c 4.404,-0.004 8.90223,0.14844 11.85156,0.14844 h 43.73438 139.73242 c 2.69866,0.0107 6.78388,-0.36231 8.81055,1.70703 1.89866,1.94133 1.81475,5.36458 1.85742,7.89258 v 19.20117 c 0,2.95466 0.33991,7.77472 -1.85742,10.02539 -1.888,1.93066 -5.24619,1.686 -7.74219,1.75 h -14.9336 l -10.66796,1.02344 h -14.9336 l -14.93164,-1.05469 -14.93359,1.01172 h -18.13477 l -8.5332,-0.9375 -11.73242,0.98047 h -16 l -20.26758,-1.06641 -14.93164,1.01367 h -19.20117 l -10.66602,-1.01367 c -3.47733,-0.032 -16.35255,0.66144 -18.56055,-1.08789 -1.81333,-1.44 -1.66436,-4.29891 -1.70703,-6.37891 V 264.5332 c 0.0747,-3.60533 -0.30849,-4.49017 2.46485,-6.82617 2.57066,-0.624 6.8792,-0.78506 11.2832,-0.78906 z m -86.951172,2.05859 c -5.216,0.0427 -10.279308,0.33988 -12.556641,1.31055 -3.093333,4.30933 -1.717698,19.67075 -1.707031,25.58008 0,2.45333 -0.404969,6.83705 1.707031,8.51172 1.429333,1.13066 4.031777,1.05589 5.759765,1.08789 h 18.134766 c 2.122666,0 6.196579,0.24544 7.892578,-1.08789 1.813333,-1.44 1.664365,-4.29891 1.707032,-6.37891 v -21.33398 c -0.04267,-2.08 0.106301,-4.93891 -1.707032,-6.37891 -1.429333,-1.13067 -4.031766,-1.05589 -5.759765,-1.08789 -2.885333,-0.0533 -8.254715,-0.26532 -13.470703,-0.22266 z m 44.800781,0 c -5.215999,0.0427 -10.279308,0.33988 -12.556641,1.31055 -3.093333,4.30933 -1.717698,19.67075 -1.707031,25.58008 0,2.45333 -0.404969,6.83705 1.707031,8.51172 1.429333,1.13066 4.031766,1.05589 5.759766,1.08789 h 18.132812 c 2.122667,0 6.198534,0.24544 7.894534,-1.08789 1.81333,-1.44 1.66241,-4.29891 1.70508,-6.37891 v -21.33398 c -0.0427,-2.08 0.10825,-4.93891 -1.70508,-6.37891 -1.42934,-1.13067 -4.03372,-1.05589 -5.761721,-1.08789 -2.885333,-0.0533 -8.252751,-0.26532 -13.46875,-0.22266 z m 268.800781,0 c -5.216,0.0427 -10.28126,0.33988 -12.55859,1.31055 -3.09334,4.30933 -1.71575,19.67075 -1.70508,25.58008 0,2.45333 -0.40692,6.83705 1.70508,8.51172 1.42933,1.13066 4.03176,1.05589 5.75976,1.08789 h 18.13477 c 2.12266,0 6.19658,0.24544 7.89258,-1.08789 1.81333,-1.44 1.66436,-4.29891 1.70703,-6.37891 v -21.33398 c -0.0427,-2.08 0.1063,-4.93891 -1.70703,-6.37891 -1.42934,-1.13067 -4.03177,-1.05589 -5.75977,-1.08789 -2.88533,-0.0533 -8.25275,-0.26532 -13.46875,-0.22266 z m 44.79883,0 c -5.216,0.0427 -10.27931,0.33988 -12.55664,1.31055 -3.09334,4.30933 -1.7177,19.67075 -1.70703,25.58008 0,2.45333 -0.40497,6.83705 1.70703,8.51172 1.42933,1.13066 4.03176,1.05589 5.75976,1.08789 h 18.13282 c 2.12266,0 6.19853,0.24544 7.89453,-1.08789 1.81333,-1.44 1.66252,-4.29891 1.70507,-6.37891 v -21.33398 c -0.0427,-2.08 0.10826,-4.93891 -1.70507,-6.37891 -1.42934,-1.13067 -4.03177,-1.05589 -5.75977,-1.08789 -2.88533,-0.0533 -8.2547,-0.26532 -13.4707,-0.22266 z m -245.67383,0.0957 c -9.79805,0.0349 -18.39173,0.10562 -27.78906,0.12695 -2.12267,0 -6.19853,-0.24544 -7.89453,1.08789 -1.81334,1.44 -1.66242,4.29891 -1.70508,6.37891 v 19.20117 c 0,2.12266 -0.24544,6.19658 1.08789,7.89258 1.44,1.81333 4.29695,1.66406 6.37695,1.66406 h 19.20117 144 28.79883 c 2.54933,0.0427 10.55082,0.34101 12.4707,-0.59766 2.624,-1.29066 2.40956,-4.3195 2.4629,-6.82617 v -19.19922 c 0,-2.45333 0.40496,-6.839 -1.70704,-8.51367 -1.57866,-1.248 -4.88483,-1.07722 -6.82617,-1.08789 L 304,259.9043 l -7.4668,-0.54492 -11.73242,0.71484 -14.93359,-0.875 -11.73438,1.02539 -10.66601,-0.59766 -7.4668,0.62891 -14.93359,-1.05664 -16.97071,1.13086 -8.64062,-0.875 h -19.1875 l -13.35938,-0.27344 c -4.11733,0 -9.14904,0.18955 -13.25195,-0.10937 z m 374.09766,1.03906 c 5.41733,-0.004 10.97194,0.15091 14.11328,0.15625 3.136,0.0107 7.43397,-0.50244 9.41797,2.46289 1.25866,1.90933 1.21604,4.92872 1.24804,7.13672 v 19.19922 c 0,2.95466 0.34187,7.77667 -1.85547,10.02734 -1.71733,1.76 -4.40573,1.66436 -6.67773,1.70703 h -24.5332 c -2.08,-0.0427 -4.93891,0.1063 -6.37891,-1.70703 -1.248,-1.57867 -1.07722,-4.88484 -1.08789,-6.82617 v -24.53516 c 0.0747,-3.60533 -0.30849,-4.49017 2.46484,-6.82617 2.592,-0.62933 7.87173,-0.79092 13.28907,-0.79492 z m 44.79882,0 c 5.41734,-0.004 10.97195,0.15091 14.11329,0.15625 3.136,0.0107 7.43592,-0.50244 9.41992,2.46289 1.25866,1.90933 1.21604,4.92872 1.24804,7.13672 v 19.19922 c 0,2.95466 0.33992,7.77667 -1.85742,10.02734 -1.71733,1.76 -4.40378,1.66436 -6.67578,1.70703 h -24.53516 c -2.07988,-0.0427 -4.93695,0.1063 -6.37695,-1.70703 -1.248,-1.57867 -1.07722,-4.88484 -1.08789,-6.82617 v -24.53516 c 0.0747,-3.60533 -0.31044,-4.49017 2.46289,-6.82617 2.592,-0.62933 7.87173,-0.79092 13.28906,-0.79492 z m -89.59961,1.0664 c 5.41734,-0.004 10.97195,0.15092 14.11329,0.15625 3.136,0.0107 7.43397,-0.50244 9.41797,2.4629 1.25855,1.90922 1.21604,4.92871 1.24804,7.13671 v 19.19922 c 0,2.95467 0.34187,7.77668 -1.85547,10.02735 -1.71733,1.76 -4.40573,1.66436 -6.67773,1.70703 h -24.5332 c -2.08,-0.0427 -4.93891,0.1063 -6.37891,-1.70703 -1.248,-1.57867 -1.07722,-4.88484 -1.08789,-6.82618 v -24.5332 c 0.0747,-3.60533 -0.30849,-4.49212 2.46484,-6.82812 2.592,-0.62934 7.87184,-0.79093 13.28906,-0.79493 z m 45.44336,0.99805 c -5.21599,0.0427 -10.2793,0.34183 -12.55664,1.3125 -3.09333,4.30933 -1.71769,19.66879 -1.70703,25.57813 0,2.45333 -0.40497,6.83716 1.70703,8.51171 1.42934,1.13067 4.03177,1.0559 5.75977,1.0879 h 18.13281 c 2.12267,0 6.19853,0.24544 7.89453,-1.0879 1.81334,-1.43988 1.66437,-4.2989 1.70703,-6.3789 v -21.33203 c -0.0427,-2.08 0.10631,-4.93891 -1.70703,-6.37891 -1.42933,-1.13067 -4.03176,-1.05589 -5.75976,-1.08789 -2.88534,-0.0533 -8.25471,-0.26728 -13.47071,-0.22461 z m 44.80079,0 c -5.216,0.0427 -10.27931,0.34183 -12.55665,1.3125 -3.09322,4.30933 -1.71769,19.66879 -1.70703,25.57813 0,2.45333 -0.40485,6.83716 1.70703,8.51171 1.42934,1.13067 4.03177,1.0559 5.75977,1.0879 h 18.13281 c 2.12267,0 6.19658,0.24544 7.89258,-1.0879 1.81333,-1.43988 1.66437,-4.2989 1.70703,-6.3789 v -21.33203 c -0.0427,-2.08 0.1063,-4.93891 -1.70703,-6.37891 -1.42933,-1.13067 -4.03176,-1.05589 -5.75976,-1.08789 -2.88534,-0.0533 -8.25276,-0.26728 -13.46875,-0.22461 z m -89.59961,1.06641 c -5.216,0.0427 -10.28126,0.34183 -12.5586,1.3125 -3.09333,4.30933 -1.71574,19.66879 -1.70508,25.57812 0,2.45334 -0.40692,6.83705 1.70508,8.51172 1.42934,1.13067 4.03372,1.05589 5.76172,1.08789 h 18.13281 c 2.12267,0 6.19658,0.24544 7.89258,-1.08789 1.81333,-1.44 1.66437,-4.29695 1.70703,-6.37695 v -21.33399 c -0.0427,-2.08 0.1063,-4.9389 -1.70703,-6.3789 -1.42933,-1.13067 -4.03176,-1.05589 -5.75976,-1.08789 -2.88534,-0.0533 -8.25275,-0.26728 -13.46875,-0.22461 z M 0.90429688,347.61523 c 0.001515,0.21359 0.002827,0.42709 0.003906,0.64063 0.0217729,0.0157 0.0488108,0.0291 0.0703125,0.0449 0.009931,-0.0643 0.0134574,-0.12919 0.0253906,-0.19336 0.075412,-0.0196 0.086788,-0.008 0.039063,-0.15039 -0.039063,-0.11656 -0.087741,-0.22954 -0.13867192,-0.3418 z M 637.86719,370.22266 c -0.26507,0.47844 -0.54835,0.94718 -0.84961,1.4082 -0.1505,0.23032 -0.31546,0.45236 -0.46094,0.68555 0.44845,-0.29896 0.88374,-0.61641 1.31055,-0.94727 z m -608.507815,0.88086 c 0.03603,0.19513 0.05839,0.39725 0.117187,0.57812 -0.04385,-0.30457 -0.05052,-0.43809 -0.117187,-0.57812 z m 393.144535,2.16601 c -0.0909,0.0325 -0.13909,0.0386 -0.2168,0.0645 h 0.83008 c -0.0585,-0.005 -0.11733,-0.002 -0.17578,-0.008 -0.1459,-0.0187 -0.29161,-0.038 -0.4375,-0.0566 z m 3.98632,0.0566 c -0.0983,0.001 -0.1966,0.006 -0.29492,0.008 h 0.72461 c -0.14323,-9.3e-4 -0.28629,-0.01 -0.42969,-0.008 z" />
  <path
     style="fill:#528e00;fill-opacity:0;stroke-width:0.3196348"
     d="m 208.39002,90.367179 c -2.76137,-1.254311 -3.00333,-2.576321 -3.07839,-16.819212 -0.0603,-11.447038 0.13278,-14.085425 1.23198,-16.832574 0.37036,-0.925637 0.82182,-1.426697 1.56537,-1.737375 2.08224,-0.870014 6.92664,-1.146981 18.0593,-1.032496 10.37136,0.106656 11.08607,0.151669 12.46364,0.784973 1.06116,0.487837 1.63015,1.011908 2.07763,1.913598 0.58165,1.172047 0.61625,2.06731 0.61625,15.944969 0,15.783186 0.0103,15.676179 -1.64536,17.149357 -1.23787,1.101464 -2.93078,1.226163 -16.57382,1.220841 -12.33601,-0.0048 -13.52943,-0.05283 -14.7166,-0.592081 z m 30.16416,-0.778794 c 1.98954,-1.085636 2.00086,-1.189569 1.90189,-17.467582 -0.0871,-14.319682 -0.10509,-14.689606 -0.75897,-15.570279 -0.36839,-0.496158 -1.19933,-1.07946 -1.84654,-1.296227 -1.72491,-0.577723 -18.80722,-0.898007 -23.85354,-0.44724 -5.78049,0.516348 -6.23711,0.685002 -6.84483,2.528176 -1.05417,3.19724 -1.22872,6.303288 -1.00742,17.927064 0.2632,13.824409 0.32617,14.076134 3.697,14.778787 0.6153,0.12826 7.0879,0.209505 14.38357,0.180546 12.15479,-0.04825 13.35388,-0.101238 14.32884,-0.633245 z"
     id="path4562"
     inkscape:connector-curvature="0"
     transform="scale(0.93750016)" />
</svg>
