<?xml version="1.0" encoding="UTF-8" standalone="no"?>
<!DOCTYPE svg PUBLIC "-//W3C//DTD SVG 20010904//EN"
              "http://www.w3.org/TR/2001/REC-SVG-20010904/DTD/svg10.dtd">

<svg xmlns="http://www.w3.org/2000/svg"
     width="3.23333in" height="0.955556in"
     viewBox="0 0 291 86">
  <path id="Selection"
        fill="none" stroke="black" stroke-width="1"
        d="M 291.00,0.00
           C 291.00,0.00 291.00,86.00 291.00,86.00
             291.00,86.00 280.00,86.00 280.00,86.00
             280.00,86.00 279.00,81.00 279.00,81.00
             279.00,81.00 275.00,86.00 275.00,86.00
             275.00,86.00 271.00,82.00 271.00,82.00
             271.00,82.00 271.00,86.00 271.00,86.00
             271.00,86.00 268.00,83.00 268.00,83.00
             268.00,83.00 263.71,85.49 263.71,85.49
             263.71,85.49 244.00,86.00 244.00,86.00
             244.00,86.00 194.00,86.00 194.00,86.00
             194.00,86.00 0.00,86.00 0.00,86.00
             0.00,86.00 0.00,0.00 0.00,0.00
             0.00,0.00 291.00,0.00 291.00,0.00 Z
           M 130.00,22.00
           C 130.00,22.00 125.00,7.00 125.00,7.00
             119.34,8.75 111.74,11.14 112.00,18.00
             112.00,18.00 119.00,13.00 119.00,13.00
             119.00,13.00 115.00,35.00 115.00,35.00
             121.51,32.71 121.26,23.70 123.00,18.00
             123.00,18.00 131.00,35.00 131.00,35.00
             138.56,31.11 134.27,27.73 135.33,21.00
             136.47,13.68 138.90,11.40 145.00,8.00
             139.27,-2.03 134.89,14.55 130.00,22.00 Z
           M 240.00,11.00
           C 243.33,16.69 245.22,12.53 251.00,11.00
             251.00,11.00 248.47,25.00 248.47,25.00
             248.47,25.00 246.00,34.00 246.00,34.00
             246.00,34.00 250.71,31.57 250.71,31.57
             250.71,31.57 252.81,23.00 252.81,23.00
             252.81,23.00 256.00,10.00 256.00,10.00
             261.82,10.98 264.99,11.45 267.00,5.00
             256.20,9.05 250.07,4.82 240.00,11.00 Z
           M 158.00,6.59
           C 149.37,6.22 149.83,16.08 148.86,22.00
             148.86,22.00 147.00,30.00 147.00,30.00
             142.53,29.09 141.94,29.58 139.00,33.22
             145.12,35.23 158.03,36.36 163.98,33.22
             166.57,32.16 167.27,31.14 169.00,29.00
             169.00,29.00 159.00,30.73 159.00,30.73
             159.00,30.73 150.00,30.00 150.00,30.00
             150.00,30.00 155.00,11.00 155.00,11.00
             159.65,12.81 161.33,13.20 163.00,8.00
             161.39,7.41 159.74,6.66 158.00,6.59 Z
           M 172.00,12.00
           C 172.00,12.00 176.00,12.00 176.00,12.00
             176.00,12.00 174.40,26.87 174.40,26.87
             174.40,26.87 170.00,35.00 170.00,35.00
             175.07,33.64 178.16,33.85 181.00,29.00
             176.17,25.77 178.51,17.32 181.70,13.32
             183.13,11.52 185.13,10.29 187.00,9.00
             187.00,9.00 186.00,6.00 186.00,6.00
             179.34,8.48 177.49,5.63 172.00,12.00 Z
           M 39.00,14.00
           C 39.00,14.00 45.00,13.00 45.00,13.00
             45.00,19.07 44.99,22.19 42.61,27.99
             40.60,32.91 38.94,32.32 38.00,38.00
             45.71,34.82 46.23,28.16 49.00,21.00
             49.00,21.00 51.00,31.00 51.00,31.00
             56.09,28.39 56.70,25.00 59.00,20.00
             59.00,20.00 64.00,35.00 64.00,35.00
             68.38,34.49 69.56,34.34 71.00,30.00
             63.21,23.10 66.48,17.56 68.00,9.00
             62.16,9.30 62.58,11.88 59.51,16.00
             57.88,18.18 55.91,20.07 54.00,22.00
             54.00,22.00 51.00,7.00 51.00,7.00
             46.17,8.41 42.44,10.27 39.00,14.00 Z
           M 74.45,27.16
           C 74.78,30.22 76.21,33.83 80.00,32.92
             83.76,32.02 91.10,22.99 91.30,19.02
             91.42,16.48 90.13,14.93 88.96,12.84
             87.03,9.38 87.17,7.92 82.97,7.74
             76.44,11.00 73.70,20.20 74.45,27.16 Z
           M 93.13,25.00
           C 93.06,28.47 94.30,34.04 99.00,32.92
             102.84,32.01 110.10,23.07 110.19,19.02
             110.24,16.44 108.95,14.97 107.80,12.84
             105.90,9.35 106.22,7.92 101.96,7.74
             95.69,10.81 93.26,18.31 93.13,25.00 Z
           M 200.70,7.70
           C 198.27,6.88 194.88,9.04 193.10,10.53
             188.60,14.31 185.94,21.18 186.03,27.00
             186.12,32.24 188.38,35.91 194.00,33.27
             195.81,32.42 197.39,31.17 199.00,30.00
             199.00,30.00 198.00,42.00 198.00,42.00
             206.07,37.94 205.00,29.80 205.00,22.00
             205.00,22.00 190.00,32.00 190.00,32.00
             186.93,22.67 190.61,16.74 198.00,11.00
             198.00,11.00 198.00,20.00 198.00,20.00
             207.58,16.62 202.91,8.45 200.70,7.70 Z
           M 228.00,21.00
           C 228.00,21.00 220.00,21.00 220.00,21.00
             220.00,21.00 224.00,9.00 224.00,9.00
             218.04,8.12 210.81,12.18 209.00,18.00
             209.00,18.00 217.00,14.00 217.00,14.00
             216.76,16.04 216.60,19.02 215.22,20.64
             212.43,23.90 210.09,20.57 209.00,27.00
             209.00,27.00 216.00,25.00 216.00,25.00
             216.00,25.00 215.00,35.00 215.00,35.00
             222.87,32.64 217.44,29.23 220.68,25.74
             222.24,24.06 224.91,24.12 227.00,24.00
             227.00,24.00 226.00,37.00 226.00,37.00
             226.00,37.00 233.00,30.00 233.00,30.00
             226.47,22.73 236.50,25.34 239.00,18.00
             239.00,18.00 232.00,20.00 232.00,20.00
             232.00,20.00 234.00,7.00 234.00,7.00
             226.79,9.23 228.01,14.61 228.00,21.00 Z
           M 83.00,12.00
           C 84.32,19.36 85.80,27.08 78.00,31.00
             76.02,22.84 77.87,19.41 81.00,12.00
             81.00,12.00 83.00,12.00 83.00,12.00 Z
           M 97.00,31.00
           C 94.72,22.98 96.61,19.19 100.00,12.00
             105.13,17.58 103.89,27.40 97.00,31.00 Z
           M 190.00,49.00
           C 190.00,49.00 190.00,54.00 190.00,54.00
             194.79,53.83 196.12,54.03 197.00,49.00
             197.00,49.00 190.00,49.00 190.00,49.00 Z
           M 120.00,51.00
           C 120.00,51.00 136.00,50.00 136.00,50.00
             136.00,50.00 120.00,51.00 120.00,51.00 Z
           M 140.00,51.00
           C 140.00,51.00 154.00,50.00 154.00,50.00
             154.00,50.00 140.00,51.00 140.00,51.00 Z
           M 160.00,51.00
           C 160.00,51.00 165.00,50.00 165.00,50.00
             165.00,50.00 160.00,51.00 160.00,51.00 Z
           M 168.00,51.00
           C 168.00,51.00 174.00,50.00 174.00,50.00
             174.00,50.00 168.00,51.00 168.00,51.00 Z
           M 76.68,51.97
           C 74.10,53.69 69.56,59.04 74.00,61.00
             72.66,64.15 70.10,70.37 72.19,73.57
             73.73,75.93 82.00,79.08 84.00,70.00
             84.00,70.00 79.00,71.00 79.00,71.00
             79.00,71.00 81.00,61.00 81.00,61.00
             85.44,60.63 86.21,60.52 87.00,56.00
             87.00,56.00 82.00,56.00 82.00,56.00
             82.00,56.00 84.00,51.00 84.00,51.00
             81.81,51.01 78.55,50.73 76.68,51.97 Z
           M 68.94,57.51
           C 65.70,52.22 49.07,55.73 51.66,63.89
             52.73,67.29 58.01,68.68 61.00,70.00
             61.00,70.00 49.00,69.00 49.00,69.00
             49.00,69.00 49.00,74.77 49.00,74.77
             53.66,75.83 59.57,76.94 63.94,74.77
             67.35,72.68 69.20,68.71 66.40,65.43
             65.03,63.82 60.32,62.28 58.00,61.00
             58.00,61.00 68.94,62.00 68.94,62.00
             69.26,60.46 69.79,59.00 68.94,57.51 Z
           M 123.67,63.85
           C 124.87,58.94 120.47,55.42 116.00,55.15
             110.45,54.81 104.88,58.57 103.29,64.00
             103.12,65.17 103.03,66.79 103.29,68.00
             104.40,80.41 121.14,74.46 123.00,74.44
             125.31,74.41 126.86,75.39 129.00,75.68
             131.40,76.00 141.36,75.22 142.84,73.43
             143.89,72.16 144.73,67.75 145.25,66.00
             145.58,63.87 146.20,61.22 145.25,59.11
             143.41,53.99 127.22,51.71 129.00,62.00
             133.31,60.66 134.48,59.77 138.00,63.00
             129.04,63.03 126.54,63.35 123.00,72.00
             123.00,72.00 122.00,69.00 122.00,69.00
             116.16,70.30 114.47,71.86 110.00,67.00
             113.62,67.00 122.57,68.34 123.67,63.85 Z
           M 178.30,74.01
           C 180.79,72.13 182.26,63.05 181.84,60.04
             180.80,52.56 173.13,56.52 171.42,56.64
             166.60,56.99 165.72,52.76 160.00,58.00
             160.00,58.00 152.00,56.00 152.00,56.00
             152.00,56.00 148.00,75.00 148.00,75.00
             150.25,74.97 153.40,75.28 155.02,73.40
             158.51,69.36 155.00,62.43 163.00,62.00
             163.00,62.00 160.00,75.00 160.00,75.00
             161.84,74.98 164.76,75.18 166.28,74.01
             170.60,70.65 166.75,63.63 175.00,61.00
             175.00,61.00 172.00,75.00 172.00,75.00
             173.87,74.98 176.75,75.18 178.30,74.01 Z
           M 214.30,74.01
           C 217.71,71.45 220.09,59.65 216.57,56.60
             214.46,54.78 203.60,56.02 200.00,56.00
             200.00,56.00 196.00,75.00 196.00,75.00
             197.88,74.98 200.87,75.16 202.42,73.98
             206.70,70.71 202.34,63.74 211.00,61.00
             211.00,61.00 208.00,75.00 208.00,75.00
             209.88,74.98 212.74,75.18 214.30,74.01 Z
           M 225.39,57.80
           C 219.57,62.91 217.69,78.01 232.00,74.00
             226.40,77.96 217.77,77.99 211.00,78.00
             211.00,78.00 180.00,78.00 180.00,78.00
             180.00,78.00 49.00,78.00 49.00,78.00
             49.00,78.00 49.00,82.00 49.00,82.00
             49.00,82.00 244.00,82.00 244.00,82.00
             244.00,82.00 244.00,78.00 244.00,78.00
             244.00,78.00 238.00,78.00 238.00,78.00
             238.00,78.00 244.00,56.00 244.00,56.00
             237.97,56.00 230.00,53.75 225.39,57.80 Z
           M 90.00,56.00
           C 90.00,56.00 85.00,74.00 85.00,74.00
             85.00,74.00 93.00,75.00 93.00,75.00
             94.61,67.86 94.81,62.96 103.00,62.00
             103.00,62.00 104.00,57.00 104.00,57.00
             104.00,57.00 97.00,58.00 97.00,58.00
             94.78,55.53 93.19,56.04 90.00,56.00 Z
           M 189.51,57.02
           C 186.94,58.85 184.53,71.52 184.00,75.00
             184.00,75.00 192.00,75.00 192.00,75.00
             192.00,75.00 196.00,56.00 196.00,56.00
             194.04,56.03 191.17,55.85 189.51,57.02 Z
           M 117.00,63.00
           C 117.00,63.00 111.00,63.00 111.00,63.00
             113.65,60.47 114.69,59.70 117.00,63.00 Z
           M 234.76,63.98
           C 232.34,73.47 225.26,66.44 230.51,61.74
             231.92,60.47 233.28,60.38 234.76,60.00
             234.76,60.00 234.76,63.98 234.76,63.98 Z
           M 131.00,70.00
           C 131.00,70.00 137.00,66.00 137.00,66.00
             137.20,70.39 134.66,70.64 131.00,70.00 Z
           M 84.00,74.00
           C 84.00,74.00 85.00,75.00 85.00,75.00
             85.00,75.00 85.00,74.00 85.00,74.00
             85.00,74.00 84.00,74.00 84.00,74.00 Z" />
</svg>
