<?xml version="1.0" encoding="UTF-8" standalone="no"?>
<!DOCTYPE svg PUBLIC "-//W3C//DTD SVG 20010904//EN"
              "http://www.w3.org/TR/2001/REC-SVG-20010904/DTD/svg10.dtd">

<svg xmlns="http://www.w3.org/2000/svg"
     width="3.78889in" height="1.41111in"
     viewBox="0 0 341 127">
  <path id="Selection #1"
        fill="none" stroke="black" stroke-width="1"
        d="M 341.00,0.00
           C 341.00,0.00 341.00,79.00 341.00,79.00
             341.00,79.00 338.00,80.00 338.00,80.00
             341.64,81.51 340.97,83.35 341.00,87.00
             341.00,87.00 341.00,127.00 341.00,127.00
             341.00,127.00 275.00,127.00 275.00,127.00
             275.00,127.00 253.54,126.46 253.54,126.46
             253.54,126.46 252.00,125.00 252.00,125.00
             241.15,127.88 230.14,127.00 219.00,127.00
             219.00,127.00 168.00,127.00 168.00,127.00
             168.00,127.00 0.00,127.00 0.00,127.00
             0.00,127.00 0.00,0.00 0.00,0.00
             0.00,0.00 341.00,0.00 341.00,0.00 Z
           M 157.48,25.01
           C 154.78,29.26 150.52,39.08 150.00,44.00
             144.84,38.83 142.07,32.25 142.00,25.00
             134.95,25.96 124.19,29.43 125.00,38.00
             125.00,38.00 134.00,32.00 134.00,32.00
             133.99,49.28 129.63,50.82 129.00,60.00
             137.01,55.92 136.09,45.74 138.00,38.00
             144.31,47.65 146.02,48.81 149.00,60.00
             159.76,55.67 153.16,51.21 154.21,43.00
             154.70,39.20 157.51,31.10 160.39,28.56
             161.83,27.28 165.14,25.93 167.00,25.01
             163.99,19.39 160.79,19.81 157.48,25.01 Z
           M 296.00,25.82
           C 287.51,27.78 288.31,32.65 291.16,33.09
             294.21,33.56 295.33,30.07 302.00,29.00
             302.00,29.00 298.55,47.00 298.55,47.00
             298.55,47.00 295.00,58.00 295.00,58.00
             296.77,58.06 297.91,58.38 299.49,57.17
             301.59,55.58 302.43,51.47 302.91,49.00
             303.80,44.33 305.42,33.72 308.70,30.40
             312.59,26.46 318.91,32.01 322.00,22.00
             311.50,25.94 305.40,23.66 296.00,25.82 Z
           M 185.00,23.73
           C 182.84,23.17 181.03,23.43 179.04,24.46
             170.07,29.10 174.50,42.26 170.35,49.84
             167.51,55.03 164.08,49.40 160.00,57.00
             171.41,61.66 186.85,61.50 197.00,54.00
             197.00,54.00 197.00,52.00 197.00,52.00
             190.28,50.57 190.66,53.60 185.00,54.73
             181.29,55.46 176.73,54.49 173.00,54.00
             173.00,54.00 180.00,28.00 180.00,28.00
             184.98,31.30 187.85,33.05 190.00,26.00
             188.64,25.32 186.41,24.10 185.00,23.73 Z
           M 202.00,28.00
           C 202.00,28.00 203.00,32.00 203.00,32.00
             203.00,32.00 207.00,31.00 207.00,31.00
             204.72,37.12 205.00,46.32 205.00,53.00
             200.46,53.98 199.41,54.49 198.00,59.00
             204.35,58.16 209.57,58.11 213.00,52.00
             213.00,52.00 209.00,52.00 209.00,52.00
             209.01,47.24 209.65,38.27 211.65,34.04
             214.40,28.22 218.64,29.78 219.00,23.00
             219.00,23.00 202.00,28.00 202.00,28.00 Z
           M 33.00,31.00
           C 33.00,31.00 34.00,35.00 34.00,35.00
             34.00,35.00 40.00,32.00 40.00,32.00
             40.54,39.44 40.03,44.98 36.89,51.96
             34.50,57.28 32.87,55.85 31.00,63.00
             40.53,60.58 41.86,49.09 45.00,41.00
             45.00,41.00 48.00,55.00 48.00,55.00
             54.02,50.94 54.95,46.37 58.00,40.00
             58.00,40.00 64.00,59.00 64.00,59.00
             69.02,59.51 71.30,59.11 73.00,54.00
             69.95,52.23 69.31,51.27 67.94,48.00
             63.40,37.75 69.79,34.30 67.94,26.00
             58.09,29.01 63.39,33.96 51.00,43.00
             51.00,43.00 47.00,24.00 47.00,24.00
             47.00,24.00 33.00,31.00 33.00,31.00 Z
           M 77.44,46.58
           C 77.07,50.48 77.93,57.02 83.02,57.27
             86.89,57.46 90.48,52.74 92.58,50.00
             95.32,46.39 99.62,42.02 98.65,37.09
             98.20,34.78 96.36,32.94 95.20,30.91
             93.26,27.52 93.83,25.95 89.87,24.66
             80.31,26.40 78.21,38.42 77.44,46.58 Z
           M 101.44,46.58
           C 101.07,50.48 101.93,57.02 107.02,57.27
             110.89,57.46 114.48,52.74 116.58,50.00
             119.32,46.39 123.62,42.02 122.65,37.09
             122.20,34.78 120.36,32.94 119.20,30.91
             117.26,27.52 117.83,25.95 113.87,24.66
             104.31,26.40 102.21,38.42 101.44,46.58 Z
           M 272.00,42.00
           C 272.00,42.00 262.00,42.00 262.00,42.00
             262.00,42.00 267.00,27.00 267.00,27.00
             260.90,25.70 250.25,31.10 248.00,37.00
             248.00,37.00 249.00,38.00 249.00,38.00
             249.00,38.00 259.00,33.00 259.00,33.00
             259.00,33.00 258.00,44.00 258.00,44.00
             252.84,44.02 249.04,42.98 248.00,49.00
             248.00,49.00 257.00,47.00 257.00,47.00
             257.00,47.00 257.00,60.00 257.00,60.00
             265.14,55.81 259.70,52.56 262.11,48.43
             263.61,45.87 268.34,45.38 271.00,45.00
             271.00,45.00 270.00,62.00 270.00,62.00
             281.12,56.69 275.61,52.91 275.00,45.00
             280.02,44.55 284.21,44.25 286.00,39.00
             286.00,39.00 276.00,40.00 276.00,40.00
             276.00,40.00 281.00,25.00 281.00,25.00
             271.87,23.87 272.52,35.56 272.00,42.00 Z
           M 229.09,28.06
           C 222.53,33.18 218.92,41.75 219.03,50.00
             219.09,54.28 220.70,59.22 226.01,58.48
             228.89,58.07 233.49,54.67 236.00,53.00
             237.86,60.75 236.00,60.92 234.00,68.00
             244.19,64.93 242.48,52.50 244.00,44.00
             233.91,45.17 236.49,51.22 224.00,56.00
             223.38,54.16 222.14,51.39 221.96,49.58
             221.21,41.96 227.88,32.10 235.00,30.00
             235.00,30.00 235.00,41.00 235.00,41.00
             247.60,36.59 241.16,18.64 229.09,28.06 Z
           M 88.00,30.00
           C 89.12,34.31 91.88,40.52 88.00,44.00
             88.00,44.00 88.00,46.00 88.00,46.00
             91.36,50.09 84.45,53.44 81.00,54.00
             79.18,43.69 81.66,39.08 86.00,30.00
             86.00,30.00 88.00,30.00 88.00,30.00 Z
           M 112.00,30.00
           C 113.12,34.31 115.88,40.52 112.00,44.00
             112.00,44.00 112.00,46.00 112.00,46.00
             115.36,50.09 108.45,53.44 105.00,54.00
             103.18,43.69 105.66,39.08 110.00,30.00
             110.00,30.00 112.00,30.00 112.00,30.00 Z
           M 224.00,84.00
           C 230.05,83.98 232.19,84.75 233.00,78.00
             226.95,78.02 224.81,77.25 224.00,84.00 Z
           M 135.00,80.00
           C 135.00,80.00 155.00,79.00 155.00,79.00
             155.00,79.00 135.00,80.00 135.00,80.00 Z
           M 161.00,80.00
           C 161.00,80.00 179.00,79.00 179.00,79.00
             179.00,79.00 161.00,80.00 161.00,80.00 Z
           M 186.00,80.00
           C 186.00,80.00 193.00,79.00 193.00,79.00
             193.00,79.00 186.00,80.00 186.00,80.00 Z
           M 196.00,80.00
           C 196.00,80.00 205.00,79.00 205.00,79.00
             205.00,79.00 196.00,80.00 196.00,80.00 Z
           M 80.69,80.99
           C 79.53,81.84 78.79,83.59 77.95,84.76
             75.97,87.54 72.03,89.92 77.00,92.00
             75.58,95.85 72.58,105.00 75.02,108.69
             76.89,111.50 85.70,112.11 87.83,109.43
             88.82,108.17 88.82,106.50 89.00,105.00
             79.95,105.27 84.62,95.65 86.70,93.59
             88.44,91.87 90.66,92.11 91.98,90.41
             92.85,89.29 92.78,88.26 93.00,87.00
             93.00,87.00 87.00,87.00 87.00,87.00
             87.00,87.00 89.00,80.00 89.00,80.00
             86.76,80.00 82.51,79.67 80.69,80.99 Z
           M 70.00,87.74
           C 68.59,85.91 65.08,86.03 63.00,86.00
             57.44,85.94 49.79,86.14 48.33,93.00
             46.66,100.91 55.03,99.78 60.00,105.00
             60.00,105.00 46.00,103.00 46.00,103.00
             46.00,103.00 45.00,110.00 45.00,110.00
             51.61,111.18 71.42,113.35 68.67,101.05
             67.59,96.24 61.25,96.02 56.00,93.00
             63.03,91.05 63.33,92.25 70.00,94.00
             70.44,92.10 71.34,89.49 70.00,87.74 Z
           M 140.00,96.00
           C 139.73,81.30 121.76,84.92 116.80,91.19
             112.11,97.11 112.76,108.04 121.00,110.43
             123.13,111.05 126.74,111.04 129.00,110.99
             133.94,110.87 135.64,110.22 140.00,108.00
             140.00,108.00 138.00,103.00 138.00,103.00
             130.57,104.95 126.85,107.74 122.00,100.00
             122.00,100.00 140.00,100.00 140.00,100.00
             140.00,100.00 140.00,96.00 140.00,96.00 Z
           M 141.24,105.96
           C 142.48,113.65 151.39,110.11 155.28,109.91
             157.58,109.79 161.38,110.48 163.28,109.01
             165.38,107.37 167.57,97.80 167.82,95.00
             168.70,85.17 161.22,85.87 154.00,86.00
             151.86,86.04 149.23,85.96 147.60,87.60
             146.10,89.10 146.16,91.06 146.00,93.00
             151.25,92.26 155.67,89.77 159.00,95.00
             151.94,95.02 139.58,95.63 141.24,105.96 Z
           M 209.44,108.98
           C 211.70,107.31 216.73,90.37 211.69,87.27
             208.11,84.65 202.61,87.41 200.00,87.27
             200.00,87.27 193.00,86.18 193.00,86.18
             193.00,86.18 185.00,87.03 185.00,87.03
             185.00,87.03 176.00,87.03 176.00,87.03
             176.00,87.03 171.00,110.00 171.00,110.00
             171.00,110.00 180.00,110.00 180.00,110.00
             180.53,107.37 182.63,98.14 183.63,96.13
             184.39,94.62 186.61,91.94 188.31,94.04
             189.92,96.04 186.45,106.82 186.00,110.00
             188.15,110.00 192.58,110.32 194.28,109.01
             196.93,106.94 197.08,98.70 199.63,95.24
             201.94,92.13 205.13,92.66 203.85,99.00
             203.85,99.00 202.85,103.00 202.85,103.00
             202.85,103.00 201.00,110.00 201.00,110.00
             203.24,110.00 207.64,110.30 209.44,108.98 Z
           M 255.30,109.01
           C 257.89,107.05 262.09,91.29 258.40,87.60
             255.51,84.71 249.57,86.86 246.00,87.03
             246.00,87.03 237.00,87.03 237.00,87.03
             237.00,87.03 232.00,110.00 232.00,110.00
             232.00,110.00 241.00,110.00 241.00,110.00
             241.53,107.36 243.63,98.14 244.63,96.13
             245.24,94.92 246.57,92.92 248.23,93.54
             251.79,94.87 247.59,107.08 247.00,110.00
             249.19,110.00 253.55,110.32 255.30,109.01 Z
           M 284.00,86.92
           C 278.08,86.27 273.23,84.52 268.34,89.34
             264.26,93.36 261.25,105.18 267.23,108.91
             270.18,110.63 273.91,109.88 277.00,108.91
             271.44,115.66 269.99,112.03 263.00,113.71
             252.38,116.26 229.03,115.00 217.00,115.00
             217.00,115.00 45.00,115.00 45.00,115.00
             45.00,115.00 45.00,119.00 45.00,119.00
             45.00,119.00 292.00,119.00 292.00,119.00
             292.00,119.00 292.00,115.00 292.00,115.00
             292.00,115.00 284.00,115.00 284.00,115.00
             287.62,108.39 290.93,94.62 292.00,86.92
             292.00,86.92 284.00,86.92 284.00,86.92 Z
           M 97.00,87.00
           C 95.87,95.02 93.69,102.80 90.00,110.00
             90.00,110.00 101.00,110.00 101.00,110.00
             101.00,110.00 104.00,95.00 104.00,95.00
             104.00,95.00 113.00,94.00 113.00,94.00
             113.00,94.00 114.00,87.00 114.00,87.00
             114.00,87.00 106.00,89.00 106.00,89.00
             103.55,86.26 100.47,87.00 97.00,87.00 Z
           M 222.00,87.00
           C 222.00,87.00 217.00,110.00 217.00,110.00
             217.00,110.00 226.00,110.00 226.00,110.00
             226.00,110.00 232.00,87.00 232.00,87.00
             232.00,87.00 222.00,87.00 222.00,87.00 Z
           M 132.00,96.00
           C 132.00,96.00 123.00,96.00 123.00,96.00
             126.02,91.18 129.61,89.88 132.00,96.00 Z
           M 280.61,97.98
           C 276.77,110.65 267.01,96.89 277.06,92.13
             278.97,91.39 280.09,91.76 282.00,92.13
             282.00,92.13 280.61,97.98 280.61,97.98 Z
           M 156.01,103.35
           C 152.34,108.17 146.37,101.74 154.04,100.11
             154.04,100.11 157.00,100.11 157.00,100.11
             156.79,101.25 156.86,102.23 156.01,103.35 Z
           M 89.00,110.00
           C 89.00,110.00 90.00,111.00 90.00,111.00
             90.00,111.00 90.00,110.00 90.00,110.00
             90.00,110.00 89.00,110.00 89.00,110.00 Z" />
</svg>
